<svg id="a2331e54-2b8a-49a5-b755-b55650bf2eb3" viewBox="0 0 1062.99 768.94"><title>logo</title><path d="M417.86,398.69H431l1.87-4.72a17.32,17.32,0,0,1-7.12,1.25c-.62,0-1.28,0-1.93-.06v-6.78h.43a6.29,6.29,0,0,1,3.81,1l2.53-4.27H423.8v-6.53a13.26,13.26,0,0,1,5.24,1.06l2.22-4.62h-13.4a16.42,16.42,0,0,1,1,6.15v11.34A16.42,16.42,0,0,1,417.86,398.69Z" transform="translate(0 0)" fill="#00007f" fill-rule="evenodd"/><path d="M431,398.69h0l1.87-4.72Zm-7.18-3.53v-6.78h.43a6.16,6.16,0,0,1,3.81,1l2.53-4.28L428,389.42a6.16,6.16,0,0,0-3.81-1h-.43Zm0-10v-6.53a13.22,13.22,0,0,1,5.24,1.06l2.22-4.62L429,379.67a13.22,13.22,0,0,0-5.24-1.06Zm-4.94-3.94a16.28,16.28,0,0,0-1-6.15A16.28,16.28,0,0,1,418.86,381.2Z" transform="translate(0 0)" fill="#00007f"/><path d="M449.27,398.31a12,12,0,0,0,3.81.6c5.34,0,8.55-2.81,8.55-7,0-2.71-1.5-4.4-4.34-6.15-2.65-1.65-4.49-2.31-4.49-4.62a2.55,2.55,0,0,1,2.81-2.65,6.49,6.49,0,0,1,4.49,2l.13-4.78a18.44,18.44,0,0,0-4.87-.81c-4.69,0-7.65,2.94-7.65,7.25a6.55,6.55,0,0,0,2.5,5.24,32.79,32.79,0,0,0,4,2.69c1.56,1,2.41,1.84,2.41,3.12s-1,2.22-2.78,2.22-3.37-1-4.81-2.94Z" transform="translate(0 0)" fill="#00007f" fill-rule="evenodd"/><path d="M453.08,398.91a12.1,12.1,0,0,1-3.81-.6l-.25-5.9.25,5.9a12.1,12.1,0,0,0,3.81.6,9.69,9.69,0,0,0,6.28-1.93,6.42,6.42,0,0,0,2.27-5.1,6.42,6.42,0,0,1-2.27,5.1A9.69,9.69,0,0,1,453.08,398.91Zm3.53-5.78c0-1.32-.92-2.17-2.41-3.12l-1.07-.68a21.41,21.41,0,0,1-2.93-2,6.53,6.53,0,0,1-2.49-5.24,6.53,6.53,0,0,0,2.49,5.24,21.41,21.41,0,0,0,2.93,2l1.07.68C455.69,391,456.61,391.81,456.61,393.13Zm-8.9-11.21a7,7,0,0,1,2.06-5.08A7,7,0,0,0,447.71,381.92Zm5.09-.81a2.58,2.58,0,0,1,.75-1.92,2.88,2.88,0,0,1,2.06-.73,6.47,6.47,0,0,1,4.49,2l.13-4.78-.13,4.78a6.47,6.47,0,0,0-4.49-2,2.88,2.88,0,0,0-2.06.73A2.58,2.58,0,0,0,452.8,381.11Z" transform="translate(0 0)" fill="#00007f"/><path d="M481.48,398.69h6.94a16.42,16.42,0,0,1-1-6.15V378.3a10.17,10.17,0,0,1,5.15,1.44l1.87-4.69H477l-1.41,5.28a16.4,16.4,0,0,1,6.87-2v14.24A16.42,16.42,0,0,1,481.48,398.69Z" transform="translate(0 0)" fill="#00007f" fill-rule="evenodd"/><path d="M488.42,398.69h0Zm-1-6.15V378.3a10.15,10.15,0,0,1,5.15,1.44l1.87-4.69-1.87,4.69a10.15,10.15,0,0,0-5.15-1.44Zm-11.81-12.21a16.39,16.39,0,0,1,6.87-2A16.39,16.39,0,0,0,475.61,380.33Z" transform="translate(0 0)" fill="#00007f"/><path d="M537.55,381.7v10.84a16.42,16.42,0,0,1-1,6.15H543a16.42,16.42,0,0,1-1-6.15V374.83l-8.18,6.87Z" transform="translate(0 0)" fill="#00007f" fill-rule="evenodd"/><path d="M543,398.69h0Zm-1-6.15v0Zm-4.47-10.84h0Z" transform="translate(0 0)" fill="#00007f"/><path d="M565.52,398.69h6.93a3,3,0,0,1-.09-.72c0-1.56,1.18-3.09,2.62-5.46,2.37-3.94,4.65-7.06,4.65-10.68,0-4.16-3-7-7.74-7a7.25,7.25,0,0,0-7.62,7.43,6.2,6.2,0,0,0,6.43,6.59,5.29,5.29,0,0,0,1.5-.22l-3,5.09a38.34,38.34,0,0,1-3.68,5m6.27-20.2a3.29,3.29,0,0,1,3.5,3.37,3.54,3.54,0,0,1-3.59,3.75,3.25,3.25,0,0,1-3.34-3.53A3.37,3.37,0,0,1,571.79,378.49Z" transform="translate(0 0)" fill="#00007f" fill-rule="evenodd"/><path d="M572.45,398.69h0Zm-.09-.72c0-1.27.77-2.5,1.84-4.2l.78-1.26c.32-.54.65-1.06,1-1.57,2-3.21,3.69-6,3.69-9.11,0,3.13-1.71,5.9-3.69,9.11-.31.51-.64,1-1,1.57l-.78,1.26C573.13,395.47,572.36,396.7,572.36,398Zm-1.66-9.12a6.32,6.32,0,0,1-4.63-1.82,6.59,6.59,0,0,1-1.8-4.77,6.59,6.59,0,0,0,1.8,4.77,6.32,6.32,0,0,0,4.63,1.82,5.09,5.09,0,0,0,1.5-.22A5.09,5.09,0,0,1,570.7,388.85Zm.82-3.25a3.25,3.25,0,0,1-3.16-3.52A3.25,3.25,0,0,0,571.52,385.6Zm-3.16-3.52a3.36,3.36,0,0,1,3.43-3.59,3.29,3.29,0,0,1,3.5,3.37,3.29,3.29,0,0,0-3.5-3.37A3.36,3.36,0,0,0,568.36,382.08Zm9.19-5.31a8.11,8.11,0,0,0-5.46-1.94A8.11,8.11,0,0,1,577.55,376.77Z" transform="translate(0 0)" fill="#00007f"/><path d="M598.52,398.69h7.15a4.65,4.65,0,0,1-.22-1.28,15.15,15.15,0,0,1,1.28-5.12l7-17.24H596.49v5.68c1.34-1.34,3.09-1.68,5.65-1.68h5.34l-5.56,13.43A26.59,26.59,0,0,1,598.52,398.69Z" transform="translate(0 0)" fill="#00007f" fill-rule="evenodd"/><path d="M605.67,398.69h0Zm-.22-1.28a15.59,15.59,0,0,1,1.28-5.12l7-17.24-7,17.24A15.59,15.59,0,0,0,605.45,397.41Zm-7.15-17.84a5.05,5.05,0,0,1,.55-.18,12.15,12.15,0,0,1,3.28-.34A11.1,11.1,0,0,0,598.3,379.57Zm9.18-.52h0Z" transform="translate(0 0)" fill="#00007f"/><path d="M632.79,386.14a6.65,6.65,0,0,0-3.37,6c0,4,3.09,6.81,7.68,6.81,4.75,0,8-3.06,8-7.25a5.71,5.71,0,0,0-3.56-5.55,5.54,5.54,0,0,0,2.78-4.94c0-3.59-2.88-6.34-7-6.34s-7.28,2.88-7.28,6.56a5.54,5.54,0,0,0,2.75,4.75m4.59-1.35a3.32,3.32,0,1,1-.06-6.62,3.31,3.31,0,0,1,.06,6.62m-.09,10.37a3.54,3.54,0,0,1-3.75-3.43,3.34,3.34,0,0,1,3.59-3.31c2.31,0,3.78,1.37,3.78,3.34A3.38,3.38,0,0,1,637.29,395.16Z" transform="translate(0 0)" fill="#00007f" fill-rule="evenodd"/><path d="M637.1,398.91a8.13,8.13,0,0,1-5.56-1.92,5.91,5.91,0,0,1-1.12-1.33,7.61,7.61,0,0,0,6.68,3.25,8.5,8.5,0,0,0,5.79-2.06,6.91,6.91,0,0,0,2.24-5.19,6.91,6.91,0,0,1-2.24,5.19A8.5,8.5,0,0,1,637.1,398.91Zm.15-3.75a3.89,3.89,0,0,1-2.65-1A3.89,3.89,0,0,0,637.25,395.16Zm-7.83-3.05h0Zm11.49-.35c0-2-1.52-3.34-3.78-3.34a3.34,3.34,0,0,0-3.59,3.31,3.34,3.34,0,0,1,3.59-3.31C639.39,388.42,640.91,389.76,640.91,391.76Zm4.21-.29a6,6,0,0,0-.89-3.16A6,6,0,0,1,645.12,391.47Zm-12.33-5.33a5.54,5.54,0,0,1-2.75-4.75A5.54,5.54,0,0,0,632.79,386.14Zm8.78,0a5.51,5.51,0,0,0,2.78-4.94A5.51,5.51,0,0,1,641.57,386.11Zm-4.1-1.32a3.08,3.08,0,0,0,2.17-.91A3.08,3.08,0,0,1,637.47,384.79Zm3.07-3.27a3.09,3.09,0,0,0-3.22-3.35,3.61,3.61,0,0,0-2.52.95,3.19,3.19,0,0,0-1,2.33,3.19,3.19,0,0,1,1-2.33,3.61,3.61,0,0,1,2.52-.95A3.09,3.09,0,0,1,640.54,381.52Z" transform="translate(0 0)" fill="#00007f"/><path d="M767.85,304.52l0-46.56,24.38-.26c8.13-.09,16.26-.19,25-.31s18.1-.27,27.46-.46,18.73-.4,25-.57,9.57-.27,12.83-.41,6.53-.3,8.44-.4,2.47-.14,3-.19c1.08-.09,1.91-.16,2.43-.23a9.55,9.55,0,0,0,1.07-.18c.32-.08.62-.14.38-.31a10,10,0,0,0-2.31-.39c-.51-.06-1-.1-2.36-.19s-3.53-.22-5.71-.33-4.36-.2-8.64-.34-10.66-.32-17-.49-12.77-.29-22.2-.45-21.91-.35-34.38-.51-25-.32-37.43-.44L767.82,205c8.93-.18,17.86-.35,26.78-.62,4.72-.15,9.43-.31,12.84-.44s5.52-.23,7.62-.36,4.21-.27,5.41-.36,1.49-.13,1.79-.16c.51-.06,1-.11,1.52-.21.31-.06.62-.14.69-.16.23-.07.29-.23.08-.33a4.19,4.19,0,0,0-.77-.2c-.45-.08-1.18-.17-2.12-.27l-2.19-.18c-1.2-.08-3.1-.21-5-.31s-3.81-.2-7.12-.33-8-.29-12.74-.43c-8.92-.27-17.85-.45-26.79-.63,0-6.54,0-13.08-.17-19.63-.06-2-.14-3.94-.23-5.51a60.18,60.18,0,0,0-.88-7.82c-.27-1.6-.63-3.64-1.07-5.67a113.53,113.53,0,0,0-6.69-20.82l-.91-2c-.56-1.23-.76-1.69-1.49-3.16-.39-.77-1-1.86-1.51-2.94a108.56,108.56,0,0,0-13.06-19.69,111.25,111.25,0,0,0-11.39-12,83.67,83.67,0,0,0-9.47-7.53q-66.08-38.9-132.29-77.63-2.64-1.44-5.29-2.83c-1.78-.93-3.55-1.85-5-2.55A59,59,0,0,0,571.14,7c-1.52-.56-3.48-1.25-5.46-1.86A112.59,112.59,0,0,0,544.27.69c-.8-.09-1.59-.16-2.23-.22-1.35-.12-1.84-.18-3.49-.26l-3.3-.14a108.1,108.1,0,0,0-23.56,1.64,101.18,101.18,0,0,0-25.16,7.46c-.52.24-1,.49-2.46,1.21s-3.77,1.92-6.1,3.14-4.63,2.48-15.48,8.75C440.82,34.81,385,67.34,363.33,80c-10.8,6.34-13,7.73-15.25,9.14s-4.41,2.86-5.94,3.89a52.35,52.35,0,0,0-6.13,4.6c-1.2,1-2.78,2.38-4.31,3.79s-3,2.87-4.8,4.77-3.88,4.22-5.87,6.63a127.37,127.37,0,0,0-11.19,16.32c-.59,1.06-1.16,2.13-1.72,3.21s-1.12,2.16-1.5,2.93c-.74,1.46-.94,1.92-1.49,3.15s-1.29,2.82-1.84,4.25a113.71,113.71,0,0,0-5.75,18.59c-.44,2-.81,4-1.08,5.65s-.43,2.76-.57,3.93-.23,2.34-.33,4.23-.21,4.5-.28,7.1c-.16,5.92-.13,11.84-.14,17.75-8.92.18-17.84.36-26.76.63-4.71.14-9.43.3-12.84.44s-5.52.23-7.62.35-4.21.28-5.41.37-1.49.12-1.79.15c-.5.06-1,.11-1.51.21-.32.06-.63.14-.69.16s-.19,0-.27.19c.12.2.16.16.41.22l.55.13c.44.08,1.17.16,2.11.26.5.05,1,.1,2.74.21s4.76.3,7.77.44,6,.27,10.37.41,10.08.31,15.79.45,11.43.28,17.15.39l0,46.54-24.39.27c-8.13.09-16.26.18-25,.31s-18.11.27-27.47.45-18.72.41-25,.57-9.58.28-12.84.41-6.52.3-8.43.4-2.47.14-3,.19c-.89.07-1.78.12-2.66.26a10.47,10.47,0,0,0-1,.2c-.09,0-.19,0-.27.17s.15.12.22.15a9.88,9.88,0,0,0,1.13.21c.31.05.63.09,1.56.16s2.47.2,4,.29,3.08.18,6,.3,7.22.27,11.52.41,8.59.25,18.48.45,25.35.49,40.83.72,30.94.41,46.42.54l0,46.55c-8.92.18-17.84.36-26.76.63-4.71.14-9.43.3-12.84.43s-5.52.24-7.62.36-4.21.28-5.41.37-1.49.12-1.79.15c-.5.06-1,.11-1.51.21-.32.06-.63.14-.69.16s-.19,0-.27.19c.12.2.16.15.41.22l.55.12c.44.09,1.17.17,2.11.27.5.05,1,.1,2.74.21s4.76.29,7.77.44,6,.27,10.37.41,10.08.3,15.79.45,11.44.27,17.15.38c0,5.91,0,11.83.14,17.73.07,2.61.18,5.22.27,7.05a54.31,54.31,0,0,0,.81,7.61c.25,1.56.62,3.61,1,5.64s.92,4.06,1.63,6.57,1.63,5.5,2.68,8.45a127.47,127.47,0,0,0,8.26,18c.62,1,1.24,2.09,1.88,3.13s1.28,2.06,1.74,2.79c.88,1.38,1.17,1.78,1.94,2.9s1.74,2.53,2.71,3.75a114.2,114.2,0,0,0,13,14.48c1.51,1.41,3.06,2.77,4.3,3.82a55.94,55.94,0,0,0,6.54,5c1.58,1.06,3.78,2.5,6,3.92s4.45,2.8,15.25,9.14c21.62,12.69,77.49,45.23,99.16,57.76,10.85,6.27,13.16,7.52,15.48,8.75s4.66,2.44,6.31,3.26a54.19,54.19,0,0,0,7,3.06c1.48.54,3.44,1.24,5.42,1.87s4,1.21,6.52,1.83,5.58,1.29,8.67,1.83a126,126,0,0,0,19.71,1.69c1.21,0,2.43-.05,3.64-.09s2.43-.1,3.29-.14c1.63-.08,2.13-.14,3.48-.26s3.07-.27,4.6-.5a113.07,113.07,0,0,0,19-4.17c2-.61,3.93-1.29,5.45-1.85a57,57,0,0,0,7.55-3.24c1.71-.85,4-2.05,6.37-3.28s4.63-2.49,15.75-8.92,31-18,51-29.66,39.82-23.26,59.72-34.91c1.69-1.05,3.38-2.12,5.05-3.2s3.35-2.16,4.66-3a61,61,0,0,0,6.27-4.77c1.23-1.05,2.8-2.42,4.31-3.84a111.77,111.77,0,0,0,14.44-16.42c.47-.65.92-1.3,1.29-1.83.77-1.12,1.07-1.52,1.95-2.91.46-.72,1.11-1.76,1.75-2.8a114,114,0,0,0,11.56-25.37,99.59,99.59,0,0,0,4.56-21.49c.05-.57.09-1.15.17-2.73s.19-4.2.26-6.8c.17-5.92.13-11.83.14-17.75,8.92-.18,17.85-.36,26.76-.63,4.72-.14,9.43-.3,12.84-.43s5.52-.24,7.62-.36,4.21-.28,5.41-.37,1.49-.12,1.79-.15c.51-.06,1-.11,1.52-.21.31-.06.62-.14.69-.16.23-.07.29-.24.08-.33a3.5,3.5,0,0,0-.77-.2c-.45-.09-1.18-.17-2.12-.27-.5,0-1-.1-2.19-.18s-3.1-.21-5-.32-3.81-.19-7.12-.32-8-.29-12.74-.43c-8.91-.27-17.83-.45-26.75-.63M366.87,86c-10.77,6.31-12.94,7.67-15.1,9s-4.3,2.78-5.76,3.76a46.78,46.78,0,0,0-5.59,4.2c-1.11.93-2.58,2.21-4,3.53s-2.82,2.69-4.5,4.47-3.65,4-5.53,6.25a118.88,118.88,0,0,0-10.52,15.33c-.56,1-1.11,2-1.65,3.07s-1.06,2.06-1.42,2.78-.56,1.13-.75,1.54a110.62,110.62,0,0,0-7.76,22.87c-.41,1.89-.76,3.8-1,5.27s-.4,2.51-.52,3.56-.21,2.09-.3,3.89-.2,4.34-.27,6.89-.11,5.1-.14,17.15c0,24.11,0,86.24,0,110.35,0,12.06.07,14.6.14,17.15s.17,5.09.26,6.84.17,2.69.28,3.63.23,1.88.46,3.31.57,3.35,1,5.26.86,3.81,1.53,6.17,1.53,5.17,2.52,7.94A119.59,119.59,0,0,0,316,377.12c.59,1,1.19,2,1.79,3s1.23,2,1.66,2.65.68,1.06.93,1.43A110.25,110.25,0,0,0,336,402.58c1.41,1.33,2.87,2.6,4,3.57s1.95,1.63,2.79,2.27,1.68,1.26,3.18,2.27,3.65,2.41,5.81,3.78,4.33,2.74,15.1,9.06c21.54,12.64,77.42,45.19,99,57.68,10.8,6.24,13.06,7.47,15.32,8.66s4.54,2.37,6.11,3.16a46.58,46.58,0,0,0,6.41,2.79c1.36.5,3.2,1.15,5.05,1.75s3.74,1.13,6.12,1.71,5.25,1.22,8.15,1.73a120.92,120.92,0,0,0,18.54,1.59l3.48-.09,3.12-.13c.81,0,1.26-.07,1.71-.11a109.85,109.85,0,0,0,23.72-4.53c1.85-.57,3.67-1.21,5.08-1.73a49.42,49.42,0,0,0,6.89-3c1.62-.8,3.9-2,6.16-3.17s4.52-2.42,15.6-8.83,31-18,50.86-29.61,39.78-23.23,59.65-34.88c1.65-1,3.28-2.05,4.91-3.1s3.25-2.1,4.49-2.94a52.47,52.47,0,0,0,5.69-4.34c1.14-1,2.61-2.25,4-3.57a106.44,106.44,0,0,0,13.61-15.48l1.2-1.71c.71-1,1-1.37,1.78-2.67.44-.68,1.06-1.67,1.67-2.66a107.66,107.66,0,0,0,10.89-23.88,92.26,92.26,0,0,0,4.26-20c.05-.49.08-1,.16-2.52s.18-4.06.25-6.61.12-5.09.14-17.46,0-34.55,0-56.73,0-44.37-.07-56.42-.1-14-.16-15.9-.14-3.84-.23-5.32a51.57,51.57,0,0,0-.8-7.11c-.25-1.48-.59-3.39-1-5.3a107.47,107.47,0,0,0-6.3-19.62c-.3-.68-.61-1.36-.86-1.91-.51-1.14-.67-1.52-1.36-2.9-.37-.72-.9-1.76-1.44-2.79a102.59,102.59,0,0,0-12.26-18.52c-1.69-2.06-3.46-4.11-5.39-6.09a81.83,81.83,0,0,0-13.84-12q-65.94-38.82-132-77.47c-1.7-.93-3.41-1.84-5.13-2.75s-3.44-1.79-4.78-2.45a51,51,0,0,0-6.59-2.81c-1.4-.52-3.24-1.16-5.09-1.74a105.81,105.81,0,0,0-20.18-4.21l-2.08-.19c-1.25-.12-1.66-.17-3.2-.25L535.06,7a101.58,101.58,0,0,0-22.15,1.53,94.79,94.79,0,0,0-23.5,6.94c-.46.21-.91.43-2.28,1.12s-3.64,1.86-5.91,3.05S476.7,22,465.9,28.27c-21.61,12.49-77.49,45-99,57.68M469.3,34.26c-21.54,12.45-77.42,45-98.9,57.6-10.73,6.3-12.84,7.62-14.95,9s-4.18,2.71-5.57,3.64a40.32,40.32,0,0,0-5,3.79c-1,.85-2.4,2-3.74,3.28s-2.63,2.51-4.21,4.18-3.42,3.72-5.17,5.84a112.57,112.57,0,0,0-9.87,14.37c-.53,1-1.05,2-1.56,2.93s-1,2-1.35,2.63-.52,1-.69,1.41a104.47,104.47,0,0,0-6.71,19.05c-.24,1-.46,1.94-.65,2.83-.37,1.76-.64,3.21-.91,4.93-.14.86-.28,1.77-.39,2.69s-.18,1.84-.28,3.54-.19,4.19-.26,6.68-.1,5-.13,17c-.05,24.05-.05,86.23,0,110.27,0,12,.07,14.51.14,17s.17,5,.25,6.63.16,2.49.25,3.31.2,1.66.42,3,.52,3.1.9,4.89.8,3.55,1.42,5.76,1.44,4.84,2.37,7.44a112.1,112.1,0,0,0,7.26,15.84c.56.95,1.13,1.9,1.71,2.84s1.17,1.88,1.57,2.51.63,1,.86,1.31A103.76,103.76,0,0,0,339,395.9c1.49,1.48,2.81,2.68,4,3.7s2.49,2.17,4,3.33c.74.57,1.48,1.11,2.9,2.06s3.51,2.32,5.61,3.66,4.22,2.66,14.95,9c21.48,12.6,77.36,45.15,98.9,57.6,10.77,6.23,13,7.42,15.16,8.58s4.43,2.31,5.92,3.06a41.85,41.85,0,0,0,5.78,2.52c1.25.46,3,1.07,4.7,1.62s3.49,1.06,5.71,1.6,4.92,1.15,7.64,1.62a113.21,113.21,0,0,0,17.36,1.5c1.11,0,2.21,0,3.32-.09l3-.12,1.56-.1a104.09,104.09,0,0,0,19.88-3.56c1-.27,1.92-.56,2.79-.83,1.71-.55,3.1-1,4.74-1.64.81-.3,1.67-.64,2.52-1s1.7-.74,3.23-1.5,3.74-1.91,5.95-3.07,4.4-2.36,15.43-8.74,30.92-18,50.78-29.56,39.73-23.21,59.58-34.84q2.4-1.49,4.77-3c1.58-1,3.15-2,4.31-2.83a45.37,45.37,0,0,0,5.13-3.91c1-.88,2.41-2.07,3.73-3.31a101.17,101.17,0,0,0,7.82-8.26c1.73-2,3.4-4.09,5-6.28.41-.56.8-1.13,1.11-1.59.66-.94.86-1.2,1.63-2.42.41-.64,1-1.57,1.58-2.52a105.4,105.4,0,0,0,11.32-26.09,87.6,87.6,0,0,0,2.87-14.84c0-.42.07-.85.14-2.31s.17-3.94.25-6.43.11-5,.13-17.3,0-34.5,0-56.67,0-44.34-.07-56.36-.09-13.89-.16-15.76-.14-3.74-.22-5.14a45.41,45.41,0,0,0-.72-6.4c-.23-1.35-.55-3.14-.93-4.91a104,104,0,0,0-3.07-10.95c-.86-2.53-1.78-5-2.85-7.48-.28-.64-.56-1.27-.79-1.77-.48-1.05-.6-1.35-1.25-2.64-.33-.67-.84-1.66-1.35-2.64a95.35,95.35,0,0,0-11.48-17.35,98.2,98.2,0,0,0-10-10.61,68.63,68.63,0,0,0-7.56-6.08Q647.82,66.07,581.86,27.49q-2.48-1.35-5-2.66c-1.66-.87-3.34-1.74-4.59-2.36a46.32,46.32,0,0,0-5.93-2.53c-1.29-.47-3-1.07-4.73-1.62a100,100,0,0,0-18.95-3.94l-1.93-.18c-1.15-.11-1.47-.15-2.91-.22l-3-.13a95,95,0,0,0-20.75,1.43,86.89,86.89,0,0,0-21.85,6.42c-.39.18-.78.36-2.08,1s-3.53,1.8-5.73,3-4.4,2.35-15.17,8.58M373.94,97.78c-10.69,6.27-12.75,7.56-14.8,8.86s-4.07,2.64-5.38,3.51a33.73,33.73,0,0,0-4.5,3.39c-.93.77-2.21,1.88-3.45,3s-2.46,2.34-3.92,3.89-3.19,3.46-4.83,5.44a105.33,105.33,0,0,0-9.2,13.4c-.5.92-1,1.85-1.48,2.78s-1,1.86-1.28,2.49-.47,1-.62,1.28a97.87,97.87,0,0,0-6.25,17.73,73.79,73.79,0,0,0-1.79,9.57c-.09.79-.16,1.59-.25,3.2s-.18,4-.25,6.46-.1,4.85-.13,16.84c-.05,24-.05,86.2,0,110.18,0,12,.07,14.41.13,16.84s.17,4.85.25,6.42.14,2.28.22,3,.18,1.42.37,2.61.49,2.86.84,4.52.74,3.3,1.32,5.35,1.34,4.52,2.2,6.94a103.68,103.68,0,0,0,6.78,14.77q.79,1.37,1.62,2.7c.55.9,1.11,1.79,1.48,2.38s.58.89.78,1.19a97.78,97.78,0,0,0,12,14.46,72.66,72.66,0,0,0,7.3,6.44c.63.49,1.28,1,2.62,1.86s3.37,2.22,5.41,3.53,4.11,2.59,14.8,8.87c21.4,12.55,77.3,45.11,98.76,57.52,10.73,6.2,12.86,7.36,15,8.5s4.3,2.24,5.71,2.94a34.49,34.49,0,0,0,5.16,2.25c1.13.42,2.73,1,4.34,1.51s3.25,1,5.32,1.49,4.58,1.06,7.12,1.51a105.5,105.5,0,0,0,16.19,1.39c1.05,0,2.1,0,3.15-.08s2.1-.08,2.8-.12,1.06-.05,1.41-.08a98.81,98.81,0,0,0,18.51-3.32,72.41,72.41,0,0,0,9.21-3.17c.73-.31,1.46-.64,2.9-1.36s3.6-1.83,5.74-3,4.28-2.3,15.28-8.66,30.85-17.92,50.69-29.51,39.69-23.18,59.51-34.79q2.32-1.44,4.62-2.92c1.53-1,3-2,4.14-2.71a39.71,39.71,0,0,0,4.56-3.48c.94-.8,2.22-1.91,3.45-3.06a92.75,92.75,0,0,0,13.05-15.18l.62-.87.77-1.19c.38-.59.93-1.48,1.48-2.38a87.64,87.64,0,0,0,8.4-17.47A80.14,80.14,0,0,0,746.67,335c0-.35.06-.71.12-2.1s.18-3.82.25-6.24.1-4.86.13-17.15,0-34.45,0-56.6,0-44.32-.07-56.31S747,182.81,747,181s-.13-3.64-.21-5a38.84,38.84,0,0,0-.64-5.69c-.21-1.23-.5-2.89-.86-4.54s-.77-3.28-1.25-5a102.75,102.75,0,0,0-5.51-15c-.15-.33-.31-.65-.62-1.28l-1.28-2.49a96.07,96.07,0,0,0-13.06-18.94,74.73,74.73,0,0,0-13.62-12.51Q644.28,72,578.47,33.49c-1.59-.87-3.2-1.73-4.81-2.57s-3.23-1.68-4.4-2.27A38.66,38.66,0,0,0,564,26.41c-1.16-.43-2.75-1-4.36-1.5a98.63,98.63,0,0,0-20.71-4c-.35,0-.71-.06-1.41-.09l-2.8-.12a88.84,88.84,0,0,0-19.34,1.32A80.7,80.7,0,0,0,495.15,28c-.32.15-.65.3-1.89.93s-3.4,1.74-5.55,2.87-4.28,2.29-15,8.5c-21.46,12.4-77.36,45-98.76,57.52M514.89,306V276.1c0-1,0-1.9.07-2.86s.12-1.9.21-2.67a18.91,18.91,0,0,1,.32-2c.13-.59.29-1.17.44-1.65a12.68,12.68,0,0,1,.93-2.3,12.42,12.42,0,0,1,3.3-3.87c.34-.26.67-.51,1.15-.83s1.09-.69,1.73-1a18.77,18.77,0,0,1,2.2-1c.9-.36,2.06-.77,3.23-1.15s2.35-.7,3.54-1v-3.25c-3.18.16-6.36.3-9.54.44s-6.37.27-10.14.39-8.13.22-12.49.25-8.72,0-11.87-.05-5.06-.09-7-.14-3.85-.12-6-.21-4.66-.19-7.12-.3-4.92-.24-7.38-.38v3.32c3,.22,6,.58,8.62,1,1.52.26,3,.56,4.53.94.64.17,1.27.36,1.82.53a26.75,26.75,0,0,1,2.9,1.08,22.94,22.94,0,0,1,5.26,3.09,15.81,15.81,0,0,1,2.91,3.15,18.12,18.12,0,0,1,1.52,2.63,10.84,10.84,0,0,1,.48,1.14c.23.6.55,1.54.82,2.49A47.52,47.52,0,0,1,491,283.3c.07,1.17.12,2.33.16,3.58.14,5,.09,10.57-.16,15.27-.06,1.16-.14,2.25-.23,3.34s-.21,2.18-.33,3.15-.24,1.83-.39,2.68-.31,1.7-.47,2.45a38.38,38.38,0,0,1-1.05,4,30.91,30.91,0,0,1-2.33,5.83,32,32,0,0,1-2.18,3.64,26.71,26.71,0,0,1-6.47,6.43,33.19,33.19,0,0,1-3.82,2.27,35.36,35.36,0,0,1-6.32,2.52,48.64,48.64,0,0,1-7.13,1.7c-.94.16-1.88.3-2.94.43s-2.24.26-3.42.37a121.85,121.85,0,0,1-23.47-.23,82.34,82.34,0,0,1-20.8-5c-1.49-.6-2.89-1.23-4.27-1.89s-2.74-1.35-4.63-2.48a75.67,75.67,0,0,1-6.6-4.41,59.22,59.22,0,0,1-6.46-5.69,74.34,74.34,0,0,1-5.24-6c-1.37-1.75-2.26-3.07-3.12-4.4s-1.68-2.69-2.51-4.17-1.66-3.06-2.44-4.68-1.49-3.27-2.2-5.08-1.41-3.8-2-5.8-1.18-4-1.69-6.26-1-4.65-1.41-7.08-.74-4.88-1-7.45a150.81,150.81,0,0,1-.87-16,156.21,156.21,0,0,1,.88-16.14c.28-2.59.61-5.07,1-7.54s.89-4.92,1.41-7.17,1.06-4.29,1.69-6.31,1.32-4,2-5.83,1.42-3.47,2.19-5.08,1.61-3.21,2.43-4.67a69.66,69.66,0,0,1,7.9-11.36c.93-1.09,1.9-2.16,3.41-3.64a74,74,0,0,1,5.8-5.05,60.18,60.18,0,0,1,7.13-4.69,66,66,0,0,1,8.33-4,76.29,76.29,0,0,1,8.35-2.69c2.42-.63,4.23-1,6.05-1.29a101.84,101.84,0,0,1,22.64-1.34,74.46,74.46,0,0,1,24.22,5.15,50.65,50.65,0,0,1,7.55,3.83c1.42.86,3.09,2,4.68,3.15a51.41,51.41,0,0,1,12.17,13,55.78,55.78,0,0,1,2.85,4.92,59,59,0,0,1,3.47,8.15,75,75,0,0,1,2.44,8.6l2.54.37,11.13-31.71a139.76,139.76,0,0,0-49.52-19.39c-4.54-.85-9.2-1.51-13.88-1.93s-9.39-.63-13.42-.66-7.39.13-10.74.39-6.7.61-9.93,1.07-6.37,1-9.47,1.67-6.18,1.46-9.06,2.31-5.58,1.79-8.22,2.82-5.25,2.2-7.68,3.39-4.69,2.43-6.89,3.75a90,90,0,0,0-22,18.38c-1.49,1.72-2.92,3.5-4.47,5.66s-3.24,4.72-4.77,7.36a78.22,78.22,0,0,0-4.12,8.18c-1.21,2.8-2.26,5.68-3.1,8.31s-1.45,5-2,7.42A105.09,105.09,0,0,0,336,262.09a110.82,110.82,0,0,0,2.25,15.26,77.26,77.26,0,0,0,2.28,8.37A82.44,82.44,0,0,0,352,308.64a66.41,66.41,0,0,0,4.94,6.35,90,90,0,0,0,28.75,22.09,94.67,94.67,0,0,0,15.53,6,66.57,66.57,0,0,0,8.82,2.22,129.89,129.89,0,0,0,13.86,2.25c4.65.52,9.33.8,13.11.92s6.64.06,9.51-.07,5.73-.34,8.45-.62,5.3-.66,7.87-1.09,5.13-.92,8.59-1.77,7.84-2.08,12.11-3.6,8.42-3.36,11.37-4.76,4.69-2.35,6.41-3.35a94.25,94.25,0,0,0,14.15-9.89c-.56-6.1-.56-11.87-.56-17.36m45.16,37.24c3.53-.13,7.07-.24,11.32-.3s9.23-.09,14.2,0,9.95.18,13.29.28,5,.18,6.74.26l5.11.26v-3a28.28,28.28,0,0,1-4.55-1.6,23.37,23.37,0,0,1-5.28-3.42,16.61,16.61,0,0,1-3-3.52c-.4-.62-.75-1.27-1-1.78a21.92,21.92,0,0,1-1.12-2.47c-.18-.47-.38-1-.56-1.57s-.35-1.12-.55-1.82a48.41,48.41,0,0,1-1.11-4.95c-.25-1.3-.42-2.62-.59-3.94s-.3-2.65-.43-4.26-.26-3.5-.35-5.4-.17-3.79-.22-5.85c-.1-4.18-.12-8.8,0-13.19v-13a34.28,34.28,0,0,1,.78-7.22,19.85,19.85,0,0,1,.86-2.84,21.81,21.81,0,0,1,1.15-2.47,16.11,16.11,0,0,1,10.45-7.9,27.15,27.15,0,0,1,9.22-.29,20.33,20.33,0,0,1,4.31,1.17,30.7,30.7,0,0,1,5.76,3c.83.56,1.78,1.25,2.87,2.12.52.42,1,.84,1.44,1.2a30.54,30.54,0,0,1,2.94,2.86c.31.35.63.7,1.15,1.31s1.24,1.49,2,2.38,1.4,1.79,2.32,3,2.05,2.74,3.18,4.28,2.24,3.08,4.41,6.15,5.39,7.67,8.58,12.28,6.35,9.25,10,14.58S670.93,318.92,675,325s8,12.11,12,18.19c1.52-.08,3-.13,4.57-.18s3-.07,6.41-.08,8.57,0,13.78,0,10.41.13,15.61.26v-2.33a42.5,42.5,0,0,1-7.48-5.27c-.9-.77-1.78-1.56-2.82-2.54-2.12-2-4.67-4.6-6.83-7.1-2.34-2.58-4.43-5.23-7-8.53-.86-1.11-1.7-2.23-3.17-4.25s-3.56-5-5.61-7.93-4-6-6.19-9.24-4.41-6.83-6.64-10.41-4.42-7.19-6.56-10.82a79,79,0,0,0-14.36-15.85A58,58,0,0,0,648,251.16c-1.18-.54-2.37-1-3.7-1.53s-2.79-1-4.26-1.43-3-.82-4.64-1.18-3.52-.72-5.38-1-3.73-.54-5.7-.76c-4-.42-8.25-.69-12.38-.74l47-37.36c4.62-3.68,9.47-7.44,14-10.87,2.24-1.69,4.36-3.27,6.48-4.84s4.27-3.11,6.19-4.47,3.61-2.53,5.32-3.69,3.43-2.28,5-3.28,2.92-1.84,4.3-2.67,2.78-1.65,4.08-2.39a120.76,120.76,0,0,1,14.38-7V165c-3.42.19-6.84.34-10.26.47s-6.84.22-9.67.28-5.05.09-7.27.08-4.46,0-6.31,0c-3.7-.06-6-.12-9.6-.25l-6.06-.24-6.37-.29v3a29.31,29.31,0,0,1,3.44.77,8.18,8.18,0,0,1,2.06.88,4.14,4.14,0,0,1,2,2,6.27,6.27,0,0,1,.4,1.12,9.81,9.81,0,0,1,.22,2.28,10.45,10.45,0,0,1-.17,1.64,14.48,14.48,0,0,1-1.13,3.46c-.14.3-.27.59-.64,1.28s-1,1.76-1.67,2.8a41,41,0,0,1-3.36,4.38c-.4.45-.81.91-1.3,1.44s-1.06,1.14-1.63,1.74-1.17,1.2-2.33,2.34-2.89,2.83-4.65,4.5-3.53,3.3-5.54,5.12-4.24,3.81-6.49,5.78-4.52,3.92-6.81,5.85L592,252V189.13a44.93,44.93,0,0,1,.48-6.53,21.75,21.75,0,0,1,.53-2.48c.22-.76.47-1.51.72-2.14a15.27,15.27,0,0,1,1.63-3.17,15.93,15.93,0,0,1,5.75-5,16.63,16.63,0,0,1,1.78-.78,30,30,0,0,1,4.6-1.29v-3c-7.14.44-14.37.85-21,1-11,.29-22.43-.29-34-1v3a38.84,38.84,0,0,1,4.75,1.63,17.28,17.28,0,0,1,3.38,1.84,16.6,16.6,0,0,1,3.43,3.17,13.33,13.33,0,0,1,2.42,4.72c.19.6.37,1.27.53,1.94a21.14,21.14,0,0,1,.37,2.19,50.7,50.7,0,0,1,.34,5.94v92.13q0,4.47,0,8.94c0,3-.09,6-.13,8.11s-.08,3.45-.12,4.76-.09,2.61-.14,3.81-.1,2.28-.16,3.37-.12,2.17-.19,3.12c-.13,1.85-.26,3.35-.46,5s-.45,3.33-.73,4.67a26.13,26.13,0,0,1-.82,3.08,23.22,23.22,0,0,1-3.57,7.42,18.5,18.5,0,0,1-2,2.23,16.32,16.32,0,0,1-3.61,2.61,26.78,26.78,0,0,1-6.26,2.35v3q5.29-.27,10.59-.47M401.89,385.42h-.33l-.92.05-3.25.17-3.51.24c-1,.08-1.59.13-2.23.2a15,15,0,0,0-3.4.58c-.22.07-.28.22-.19.3a2.08,2.08,0,0,0,.76.28,69.84,69.84,0,0,0,9.86.92l3.21.16v-2.91m259.23,2.92c2.1-.1,4.35-.22,6.31-.36,1-.06,1.82-.13,2.67-.2s1.7-.17,2.26-.24.81-.1,1.06-.14a4.23,4.23,0,0,0,1.39-.34c.38-.2.18-.31-.26-.46a21.73,21.73,0,0,0-3.2-.5c-.63-.07-1.27-.13-2.22-.2s-2.24-.17-3.52-.24l-3.25-.18-.91,0-.33,0Z" transform="translate(0 0)" fill="#00007f" fill-rule="evenodd"/><path d="M531.63,509.49a124.6,124.6,0,0,1-19.71-1.69c-3.47-.6-6.63-1.33-8.67-1.83-2.4-.59-4.41-1.15-6.52-1.83s-4.36-1.48-5.42-1.87a52.68,52.68,0,0,1-7-3.06c-1.74-.87-4.1-2.09-6.31-3.26-2.41-1.27-4.79-2.57-15.48-8.75-21.9-12.66-77.5-45.05-99.16-57.76-10.66-6.25-13-7.68-15.25-9.14s-4.42-2.86-6-3.92a56.08,56.08,0,0,1-6.55-5c-1.07-.92-2.7-2.33-4.29-3.82a113.47,113.47,0,0,1-13-14.48c-.85-1.07-1.72-2.33-2.42-3.34l-.29-.41-.26-.38c-.59-.85-.91-1.31-1.68-2.52-.27-.43-1-1.55-1.74-2.79-.66-1.08-1.29-2.13-1.88-3.13a126.28,126.28,0,0,1-8.26-18c-1.17-3.3-2.11-6.42-2.68-8.45-.68-2.39-1.18-4.42-1.63-6.57s-.81-4.27-1-5.64a54.34,54.34,0,0,1-.81-7.61c-.1-2-.2-4.59-.27-7.05-.13-4.76-.13-9.6-.13-14.29,0-1.14,0-2.29,0-3.44-5.63-.1-11.4-.23-17.15-.38s-11.41-.31-15.79-.45-7.33-.26-10.37-.41-6-.32-7.77-.44-2.23-.16-2.74-.21c-1-.1-1.68-.19-2.11-.27l-.55-.12-.14,0a.33.33,0,0,1-.27-.19.33.33,0,0,0,.27.19l.14,0,.55.12c.43.08,1.13.17,2.11.27.51.05,1,.1,2.74.21s4.81.3,7.77.44,6,.27,10.37.41,10.13.31,15.79.45,11.52.28,17.15.38c0,1.15,0,2.3,0,3.44,0,4.69,0,9.53.13,14.29.07,2.46.17,5.09.27,7.05a54.34,54.34,0,0,0,.81,7.61c.23,1.37.59,3.46,1,5.64s1,4.18,1.63,6.57c.57,2,1.51,5.15,2.68,8.45a126.28,126.28,0,0,0,8.26,18c.59,1,1.22,2,1.88,3.13.76,1.24,1.47,2.36,1.74,2.79.77,1.21,1.09,1.67,1.68,2.52l.26.38.29.41c.7,1,1.57,2.27,2.42,3.34a113.47,113.47,0,0,0,13,14.48c1.59,1.49,3.22,2.9,4.29,3.82a56.08,56.08,0,0,0,6.55,5c1.58,1.06,3.76,2.49,6,3.92s4.59,2.89,15.25,9.14c21.66,12.71,77.26,45.1,99.16,57.76,10.69,6.18,13.07,7.48,15.48,8.75,2.21,1.17,4.57,2.39,6.31,3.26a52.68,52.68,0,0,0,7,3.06c1.06.39,3.17,1.15,5.42,1.87s4.12,1.24,6.52,1.83c2,.5,5.2,1.23,8.67,1.83a124.6,124.6,0,0,0,19.71,1.69c1.23,0,2.46-.05,3.64-.09l3.29-.14c1.44-.07,2-.12,3-.22l.45,0,.5-.05c1.23-.11,2.76-.24,4.1-.45a113.16,113.16,0,0,0,19-4.17c2.09-.65,4.12-1.36,5.45-1.85a56.78,56.78,0,0,0,7.55-3.24c1.75-.87,4.07-2.07,6.37-3.28s4.82-2.6,15.75-8.92c9.83-5.69,27.93-16.22,51-29.66,20.64-12,40.73-23.79,59.72-34.91,1.64-1,3.34-2.09,5.05-3.2s3.42-2.21,4.66-3a59.72,59.72,0,0,0,6.27-4.77c1.09-.93,2.72-2.35,4.31-3.84a112.65,112.65,0,0,0,14.44-16.42c.41-.57.8-1.13,1.15-1.63l.4-.58c.59-.84.91-1.31,1.69-2.53.27-.42,1-1.55,1.75-2.8a114,114,0,0,0,11.56-25.37,99.65,99.65,0,0,0,4.56-21.49c.05-.6.09-1.18.17-2.73,0-1.05.18-3.82.26-6.8.13-4.46.14-9,.14-13.37,0,4.39,0,8.91-.14,13.37-.08,3-.21,5.75-.26,6.8-.08,1.55-.12,2.13-.17,2.73a99.65,99.65,0,0,1-4.56,21.49,114,114,0,0,1-11.56,25.37c-.77,1.25-1.48,2.38-1.75,2.8-.78,1.22-1.1,1.69-1.69,2.53l-.4.58c-.35.5-.74,1.06-1.15,1.63a112.65,112.65,0,0,1-14.44,16.42c-1.59,1.49-3.22,2.91-4.31,3.84a59.72,59.72,0,0,1-6.27,4.77c-1.24.84-2.85,1.89-4.66,3s-3.41,2.18-5.05,3.2c-19,11.12-39.08,22.87-59.72,34.91-23,13.44-41.12,24-51,29.66-10.93,6.32-13.33,7.64-15.75,8.92s-4.62,2.41-6.37,3.28a56.78,56.78,0,0,1-7.55,3.24c-1.33.49-3.36,1.2-5.45,1.85a113.16,113.16,0,0,1-19,4.17c-1.34.21-2.87.34-4.1.45l-.5.05-.45,0c-1,.1-1.59.15-3,.22l-3.29.14C534.09,509.44,532.86,509.47,531.63,509.49Zm0-6.89A119,119,0,0,1,513.06,501c-3.24-.57-6.22-1.25-8.15-1.73-2.27-.56-4.15-1.08-6.12-1.71s-4.06-1.39-5.05-1.75a47.13,47.13,0,0,1-6.41-2.79c-1.67-.84-4-2-6.11-3.16-2.33-1.23-4.65-2.49-15.32-8.66-21.83-12.62-77.36-45-99-57.68-10.6-6.22-12.86-7.62-15.1-9.06s-4.28-2.75-5.81-3.78-2.4-1.67-3.19-2.27-1.68-1.33-2.78-2.27c-1.5-1.27-2.84-2.47-4-3.57a110.53,110.53,0,0,1-15.65-18.4c-.24-.35-.49-.73-.93-1.43-.26-.4-.93-1.47-1.66-2.65-.62-1-1.22-2-1.79-3a118.15,118.15,0,0,1-7.76-16.91c-1.11-3.12-2-6-2.52-7.94-.64-2.26-1.11-4.16-1.53-6.17-.45-2.18-.8-4.23-1-5.26-.22-1.35-.35-2.31-.46-3.31s-.18-1.84-.28-3.63-.2-4.48-.26-6.84c-.07-2.55-.11-5.07-.14-17.15s0-33.14,0-54.42c0,21.28,0,42.45,0,54.42s.07,14.6.14,17.15c.06,2.36.16,4.91.26,6.84s.18,2.72.28,3.63.24,2,.46,3.31c.17,1,.52,3.08,1,5.26.42,2,.89,3.91,1.53,6.17.53,1.9,1.41,4.82,2.52,7.94A118.15,118.15,0,0,0,316,377.12c.57,1,1.17,2,1.79,3,.73,1.18,1.4,2.25,1.66,2.65.44.7.69,1.08.93,1.43A110.53,110.53,0,0,0,336,402.58c1.17,1.1,2.51,2.3,4,3.57,1.1.94,1.94,1.62,2.78,2.27s1.63,1.22,3.19,2.27,3.7,2.44,5.81,3.78,4.5,2.84,15.1,9.06c21.67,12.72,77.2,45.06,99,57.68,10.67,6.17,13,7.43,15.32,8.66,2.15,1.15,4.44,2.32,6.11,3.16a47.13,47.13,0,0,0,6.41,2.79c1,.36,2.95,1.08,5.05,1.75s3.85,1.15,6.12,1.71c1.93.48,4.91,1.16,8.15,1.73a119,119,0,0,0,18.54,1.59c1.15,0,2.33-.05,3.48-.09l3.12-.13c.84,0,1.29-.07,1.71-.11a110,110,0,0,0,23.72-4.53c1.54-.48,3.25-1.06,5.08-1.73a48.86,48.86,0,0,0,6.89-3c1.64-.81,3.94-2,6.16-3.17s4.71-2.54,15.59-8.83c9.75-5.64,27.82-16.16,50.87-29.61,21.17-12.35,40.68-23.76,59.65-34.88,1.6-1,3.25-2,4.91-3.1s3.34-2.16,4.49-2.94a52.64,52.64,0,0,0,5.69-4.34c1.51-1.28,2.86-2.48,4-3.57a107.13,107.13,0,0,0,13.61-15.48l1-1.46.18-.25.31-.46c.49-.7.78-1.12,1.47-2.21.49-.77,1.12-1.77,1.67-2.66a107.27,107.27,0,0,0,10.89-23.88,92.35,92.35,0,0,0,4.26-20c0-.47.08-1,.16-2.52.05-1,.17-3.75.25-6.61.08-2.6.12-5.17.14-17.46,0-10.43,0-28,0-46.63,0,18.61,0,36.2,0,46.63,0,12.29-.06,14.86-.14,17.46-.08,2.86-.2,5.58-.25,6.61-.08,1.56-.12,2.05-.16,2.52a92.35,92.35,0,0,1-4.26,20,107.27,107.27,0,0,1-10.89,23.88c-.55.89-1.18,1.89-1.67,2.66-.69,1.09-1,1.51-1.47,2.21l-.31.46-.18.25-1,1.46A107.13,107.13,0,0,1,727,402.61c-1.17,1.09-2.52,2.29-4,3.57a52.64,52.64,0,0,1-5.69,4.34c-1.15.78-2.74,1.82-4.49,2.94s-3.31,2.11-4.91,3.1c-19,11.12-38.48,22.53-59.65,34.88-23.05,13.45-41.12,24-50.87,29.61-10.88,6.29-13.24,7.58-15.59,8.83s-4.52,2.36-6.16,3.17a48.86,48.86,0,0,1-6.89,3c-1.83.67-3.54,1.25-5.08,1.73a110,110,0,0,1-23.72,4.53c-.42,0-.87.07-1.71.11l-3.12.13C533.93,502.55,532.75,502.58,531.6,502.6Zm0-6.89a110.65,110.65,0,0,1-17.36-1.5c-3-.53-5.83-1.17-7.64-1.62-2.11-.52-3.88-1-5.71-1.6s-3.78-1.28-4.7-1.62a42.29,42.29,0,0,1-5.79-2.52c-1.62-.82-3.88-2-5.91-3.06-2.27-1.2-4.55-2.44-15.16-8.58-21.81-12.6-77.26-44.9-98.9-57.6-10.55-6.19-12.77-7.57-14.95-9-2-1.29-4.12-2.66-5.61-3.66s-2.21-1.53-2.9-2.06c-1.54-1.19-2.87-2.34-4-3.33-1.44-1.27-2.7-2.44-4-3.7a102.65,102.65,0,0,1-12.9-15.54c-.23-.33-.45-.66-.86-1.31-.24-.37-.87-1.37-1.57-2.51-.58-1-1.16-1.91-1.71-2.84a111.45,111.45,0,0,1-7.26-15.84c-1-2.9-1.86-5.65-2.37-7.44-.59-2.11-1-3.89-1.42-5.76-.42-2-.75-3.93-.9-4.89-.2-1.21-.32-2.07-.42-3s-.16-1.63-.25-3.31c-.07-1.46-.18-4-.25-6.63s-.11-5-.14-17,0-33.29,0-54.63c0,21.34,0,42.61,0,54.63s.06,14.48.14,17,.18,5.17.25,6.63c.09,1.68.16,2.51.25,3.31s.22,1.76.42,3c.15,1,.48,2.87.9,4.89.39,1.87.83,3.65,1.42,5.76.51,1.79,1.33,4.54,2.37,7.44a111.45,111.45,0,0,0,7.26,15.84c.55.93,1.13,1.88,1.71,2.84.7,1.14,1.33,2.14,1.57,2.51.41.65.63,1,.86,1.31A102.65,102.65,0,0,0,339,395.9c1.27,1.26,2.53,2.43,4,3.7,1.13,1,2.46,2.14,4,3.33.69.53,1.41,1.06,2.9,2.06s3.59,2.37,5.61,3.66c2.18,1.39,4.4,2.77,14.95,9,21.64,12.7,77.09,45,98.9,57.6,10.61,6.14,12.89,7.38,15.16,8.58,2,1.08,4.29,2.24,5.91,3.06a42.29,42.29,0,0,0,5.79,2.52c.92.34,2.76,1,4.7,1.62s3.6,1.08,5.71,1.6c1.81.45,4.6,1.09,7.64,1.62a110.65,110.65,0,0,0,17.36,1.5c1.11,0,2.23,0,3.32-.09l3-.12c.8,0,1.19-.07,1.56-.1a104.79,104.79,0,0,0,19.88-3.56c.9-.25,1.87-.54,2.79-.83,1.6-.51,3-1,4.74-1.64,1-.37,1.78-.68,2.52-1s1.63-.7,3.23-1.5,3.81-1.94,5.95-3.07,4.61-2.48,15.43-8.74c13.32-7.71,37.53-21.83,50.78-29.56,20.32-11.86,40.37-23.58,59.58-34.84,1.58-1,3.18-2,4.77-3s3.22-2.09,4.31-2.83a46.44,46.44,0,0,0,5.13-3.9c1.4-1.2,2.66-2.31,3.73-3.32a104,104,0,0,0,7.82-8.26c2-2.34,3.58-4.34,5-6.28.35-.49.71-1,1-1.41l.12-.18c.12-.16.22-.3.31-.44.44-.63.68-1,1.32-2,.45-.7,1-1.65,1.58-2.52a105.52,105.52,0,0,0,11.32-26.09,88.58,88.58,0,0,0,2.87-14.84c0-.41.06-.81.14-2.31.06-1.28.17-3.81.25-6.43s.1-5,.13-17.3c0-11,0-29.3,0-47.49,0,18.19,0,36.45,0,47.49,0,12.29-.06,14.81-.13,17.3s-.19,5.15-.25,6.43c-.08,1.5-.11,1.9-.14,2.31a88.58,88.58,0,0,1-2.87,14.84,105.52,105.52,0,0,1-11.32,26.09c-.54.87-1.13,1.82-1.58,2.52-.64,1-.88,1.35-1.32,2-.09.14-.19.28-.31.44l-.12.18c-.28.41-.64.92-1,1.41-1.38,1.94-3,3.94-5,6.28a104,104,0,0,1-7.82,8.26c-1.07,1-2.33,2.12-3.73,3.32a46.44,46.44,0,0,1-5.13,3.9c-1.09.74-2.62,1.75-4.31,2.83s-3.19,2-4.77,3c-19.21,11.26-39.26,23-59.58,34.84-13.25,7.73-37.46,21.85-50.78,29.56-10.82,6.26-13.14,7.52-15.43,8.74s-4.37,2.28-5.95,3.07-2.42,1.17-3.23,1.5-1.54.63-2.52,1c-1.77.66-3.14,1.13-4.74,1.64-.92.29-1.89.58-2.79.83a104.79,104.79,0,0,1-19.88,3.56c-.37,0-.76.06-1.56.1l-3,.12C533.8,495.66,532.68,495.69,531.57,495.71Zm0-6.9a103.78,103.78,0,0,1-16.19-1.39c-2.83-.5-5.44-1.1-7.12-1.51-2-.49-3.61-1-5.32-1.49s-3.27-1.11-4.34-1.51l-.28-.1a34.65,34.65,0,0,1-4.88-2.15c-1.56-.78-3.75-1.91-5.71-2.94-2.21-1.17-4.45-2.39-15-8.5-21.26-12.29-77.56-45.09-98.76-57.52-10.53-6.18-12.69-7.52-14.8-8.87-1.93-1.23-4-2.59-5.41-3.53s-2-1.38-2.62-1.86a72,72,0,0,1-7.3-6.44,97.57,97.57,0,0,1-12-14.46c-.22-.32-.42-.63-.78-1.19L329.54,373c-.53-.87-1.08-1.78-1.62-2.7a102.44,102.44,0,0,1-6.78-14.77c-.95-2.69-1.72-5.25-2.2-6.94-.55-1.94-1-3.59-1.33-5.35s-.64-3.41-.83-4.52-.29-1.94-.37-2.61-.14-1.46-.22-3-.17-3.86-.25-6.42-.1-5-.13-16.84,0-33.1,0-54.34c0,21.24,0,42.38,0,54.34s.06,14.35.13,16.84.18,5,.25,6.42.14,2.26.22,3,.17,1.37.37,2.61.48,2.79.83,4.52.78,3.41,1.33,5.35c.48,1.69,1.25,4.25,2.2,6.94a102.44,102.44,0,0,0,6.78,14.77c.54.92,1.09,1.83,1.62,2.7l1.48,2.38c.36.56.56.87.78,1.19a97.57,97.57,0,0,0,12,14.46,72,72,0,0,0,7.3,6.44c.62.48,1.24.93,2.62,1.86s3.48,2.3,5.41,3.53c2.11,1.35,4.27,2.69,14.8,8.87,21.2,12.43,77.5,45.23,98.76,57.52,10.56,6.11,12.8,7.33,15,8.5,2,1,4.15,2.16,5.71,2.94a34.65,34.65,0,0,0,4.88,2.15l.28.1c1.07.4,2.68,1,4.34,1.51s3.35,1,5.32,1.49c1.68.41,4.29,1,7.12,1.51a103.78,103.78,0,0,0,16.19,1.39c1.05,0,2.11,0,3.15-.08s1.95-.07,2.8-.12,1.08-.06,1.41-.08a98.66,98.66,0,0,0,18.51-3.32,71.47,71.47,0,0,0,9.21-3.17c.71-.3,1.42-.62,2.9-1.36s3.7-1.88,5.74-3c2.22-1.18,4.49-2.41,15.28-8.66,9.88-5.72,28.36-16.47,50.69-29.51,20.34-11.86,40.36-23.57,59.51-34.79,1.52-.94,3.07-1.92,4.62-2.92s3.07-2,4.14-2.71a38.72,38.72,0,0,0,4.56-3.48c1.3-1.11,2.46-2.14,3.45-3.06a94.15,94.15,0,0,0,13.05-15.18l.62-.87c.2-.31.41-.62.77-1.19.23-.36.83-1.31,1.48-2.38a87.75,87.75,0,0,0,8.4-17.47A80.2,80.2,0,0,0,746.67,335c0-.38.06-.76.12-2.1.05-1,.17-3.56.25-6.24.07-2.46.1-5,.13-17.15,0-10.72,0-29,0-48.9,0,19.91,0,38.18,0,48.9,0,12.19-.06,14.69-.13,17.15-.08,2.68-.2,5.26-.25,6.24-.06,1.34-.09,1.72-.12,2.1a80.2,80.2,0,0,1-4.83,20.49,87.75,87.75,0,0,1-8.4,17.47c-.65,1.07-1.25,2-1.48,2.38-.36.57-.57.88-.77,1.19l-.62.87a94.15,94.15,0,0,1-13.05,15.18c-1,.92-2.15,2-3.45,3.06a38.72,38.72,0,0,1-4.56,3.48c-1.07.72-2.58,1.71-4.14,2.71s-3.1,2-4.62,2.92c-19.15,11.22-39.17,22.93-59.51,34.79-22.33,13-40.81,23.79-50.69,29.51-10.79,6.25-13.06,7.48-15.28,8.66-2,1.08-4.25,2.22-5.74,3s-2.19,1.06-2.9,1.36a71.47,71.47,0,0,1-9.21,3.17,98.66,98.66,0,0,1-18.51,3.32c-.33,0-.69.05-1.41.08s-1.89.09-2.8.12S532.6,488.8,531.55,488.81ZM661.11,388.34c1.64-.08,4.07-.2,6.32-.36,1-.06,1.85-.13,2.67-.2l2.25-.24c.56-.06.81-.1,1.07-.14l.3,0a3.1,3.1,0,0,0,1.09-.29c.14-.07.2-.13.2-.19s-.06.12-.2.19a3.1,3.1,0,0,1-1.09.29l-.3,0c-.26,0-.51.08-1.07.14l-2.25.24c-.82.07-1.66.14-2.67.2C665.18,388.14,662.75,388.26,661.11,388.34Zm-259.22,0-3.21-.16-1.43-.08a58.27,58.27,0,0,1-8.43-.84,2.1,2.1,0,0,1-.76-.28.1.1,0,0,1,0-.08.1.1,0,0,0,0,.08,2.1,2.1,0,0,0,.76.28,58.27,58.27,0,0,0,8.43.84l1.43.08,3.21.16v0ZM671,386.06c-.57-.06-1.14-.11-1.89-.16l-2.92-.21,2.92.21C669.88,386,670.45,386,671,386.06ZM441,348.56Zm0,0c-1.25,0-2.52,0-3.87-.06C438.44,348.54,439.71,348.56,441,348.56Zm-4-.06c-4.32-.13-9-.46-13.11-.92A129.23,129.23,0,0,1,410,345.33a67.38,67.38,0,0,1-8.82-2.22,94.63,94.63,0,0,1-15.53-6A89.79,89.79,0,0,1,356.92,315a67.41,67.41,0,0,1-4.94-6.35,90.64,90.64,0,0,1-6.6-11,91.82,91.82,0,0,1-4.86-12,77.7,77.7,0,0,1-2.28-8.37A110.92,110.92,0,0,1,336,262.09c-.19-2.59-.29-5.2-.29-7.81,0,2.61.1,5.22.29,7.81a110.92,110.92,0,0,0,2.25,15.26,77.7,77.7,0,0,0,2.28,8.37,91.82,91.82,0,0,0,4.86,12,90.64,90.64,0,0,0,6.6,11,67.41,67.41,0,0,0,4.94,6.35,89.79,89.79,0,0,0,28.75,22.09,94.63,94.63,0,0,0,15.53,6,67.38,67.38,0,0,0,8.82,2.22,129.23,129.23,0,0,0,13.86,2.25C428,348,432.67,348.37,437,348.5Zm8.87,0h0Zm.1,0h0Zm.35,0h0Zm.19,0c2.95-.13,5.79-.34,8.45-.62s5.09-.63,7.87-1.09c2.25-.38,4.86-.85,8.59-1.77,3-.74,7.53-2,12.11-3.6,4.73-1.7,9.15-3.71,11.37-4.76,2.83-1.34,4.55-2.27,6.41-3.35a94.18,94.18,0,0,0,14.15-9.89,94.18,94.18,0,0,1-14.15,9.89c-1.86,1.08-3.58,2-6.41,3.35-2.22,1.05-6.64,3.06-11.37,4.76-4.58,1.63-9.11,2.86-12.11,3.6-3.73.92-6.34,1.39-8.59,1.77-2.78.46-5.36.82-7.87,1.09S449.45,348.3,446.5,348.43Zm164.2-4.73-5.1-.26c-1.73-.08-3.42-.16-6.75-.26-2.63-.08-7.86-.23-13.28-.28,5.42.05,10.65.2,13.28.28,3.33.1,5,.18,6.75.26l5.1.26v0Zm-61.24,0c3.44-.18,7-.34,10.59-.47,4.08-.15,7.58-.25,11.32-.3h0c-3.74.05-7.24.15-11.32.3C556.46,343.36,552.9,343.52,549.46,343.7Zm137.48-.55c-4-6.07-8-12.19-12-18.19-3.73-5.61-7.77-11.63-11.67-17.4-3.7-5.46-6.86-10.1-10-14.58-2.72-3.92-5.92-8.51-8.58-12.28-2.16-3.05-3.29-4.62-4.41-6.15l-3.18-4.28c-.89-1.18-1.59-2.08-2.32-3-.88-1.1-1.66-2-2-2.38-.54-.63-.84-1-1.14-1.31a30.37,30.37,0,0,0-2.94-2.86c-.46-.4-1-.82-1.44-1.2-1-.81-2-1.5-2.87-2.12a30.66,30.66,0,0,0-5.76-3,20.18,20.18,0,0,0-4.31-1.17h0a20.18,20.18,0,0,1,4.31,1.17,30.66,30.66,0,0,1,5.76,3c.92.62,1.86,1.31,2.87,2.12.46.38,1,.8,1.44,1.2a30.37,30.37,0,0,1,2.94,2.86c.3.33.6.68,1.14,1.31.3.35,1.08,1.28,2,2.38.73.92,1.43,1.82,2.32,3l3.18,4.28c1.12,1.53,2.25,3.1,4.41,6.15,2.66,3.77,5.86,8.36,8.58,12.28,3.1,4.48,6.26,9.12,10,14.58,3.9,5.77,7.94,11.79,11.67,17.4,4,6,8,12.12,12,18.19,1.49-.07,3-.13,4.57-.18s3.07-.07,6.41-.08h0c-3.34,0-4.88,0-6.41.08S688.43,343.08,686.94,343.15Zm40.37,0c-5.26-.13-10.51-.22-15.61-.26,5.1,0,10.35.13,15.61.26v0Zm-155.6-.23h0Zm13.74,0h0Zm126,0c-2.64,0-5.16,0-7.35,0C706.3,342.87,708.82,342.87,711.46,342.89Zm-126.45,0c-1.79,0-3.51,0-5.13,0C581.5,342.87,583.22,342.87,585,342.89Zm119.1,0Zm-124.24,0ZM443.26,341.4Zm0,0a114.75,114.75,0,0,1-12.49-.65A114.75,114.75,0,0,0,443.26,341.4Zm10.46-.44.17,0Zm-23-.21-.1,0Zm164-16.2a47.16,47.16,0,0,1-1.09-4.77A47.16,47.16,0,0,0,594.68,324.55Zm173.16-12.42v-2.62l2.14,0c8.07-.17,16.42-.34,24.62-.59,4.47-.13,9.27-.29,12.84-.43,3.26-.13,5.39-.23,7.62-.36,2-.12,4.12-.27,5.41-.37s1.47-.12,1.79-.15l.25,0c.42-.05.85-.1,1.27-.18s.62-.14.69-.16.21-.11.21-.18h0c0,.07-.09.14-.21.18s-.38.1-.69.16-.85.13-1.27.18l-.25,0c-.32,0-.63.07-1.79.15s-3.38.25-5.41.37c-2.23.13-4.36.23-7.62.36-3.57.14-8.37.3-12.84.43-8.2.25-16.55.42-24.62.59l-2.14,0Zm-253-6v0Zm0-.13V276.1c0-1.05,0-2,.06-2.86s.13-1.9.22-2.67a19.83,19.83,0,0,1,.32-2c.14-.66.32-1.26.44-1.65a13.3,13.3,0,0,1,.93-2.3,12.42,12.42,0,0,1,3.3-3.87c.38-.29.72-.54,1.15-.83s1-.66,1.73-1a19.31,19.31,0,0,1,2.2-1c1-.38,2.1-.79,3.23-1.15s2.36-.71,3.54-1v0c-1.18.29-2.37.63-3.54,1s-2.28.77-3.23,1.15a19.31,19.31,0,0,0-2.2,1c-.69.37-1.32.77-1.73,1s-.77.54-1.15.83a12.42,12.42,0,0,0-3.3,3.87,13.3,13.3,0,0,0-.93,2.3c-.12.39-.3,1-.44,1.65a19.83,19.83,0,0,0-.32,2c-.09.77-.16,1.72-.22,2.67s-.06,1.81-.06,2.86Zm253-1.47,0-46.56,24.38-.26,25-.31c9.83-.14,19.07-.29,27.46-.46s17.69-.38,25-.57c6.57-.17,9.78-.28,12.83-.41s6.43-.29,8.43-.4,2.47-.14,3-.19c1.17-.09,1.94-.17,2.43-.23l.15,0a7.08,7.08,0,0,0,.92-.16h.06c.21-.05.39-.1.4-.18h0c0,.08-.19.13-.4.18h-.06a7.08,7.08,0,0,1-.92.16l-.15,0c-.49.06-1.26.14-2.43.23-.57,0-1.12.09-3,.19s-5.27.27-8.43.4-6.26.24-12.83.41c-7.35.19-16.71.41-25,.57s-17.63.32-27.46.46l-25,.31-24.38.26Zm-472.71,0,0-46.55c-15.57-.13-31.19-.32-46.41-.54-15.69-.24-31.38-.53-40.84-.72-9.65-.19-14.08-.31-18.48-.45-4-.13-8.31-.28-11.51-.41s-4.58-.21-6-.3c-1.62-.1-3.17-.22-4-.29s-1.27-.12-1.56-.16a8.22,8.22,0,0,1-1.13-.21l0,0c-.07,0-.16-.05-.17-.13,0,.08.1.11.17.13l0,0a8.22,8.22,0,0,0,1.13.21c.29,0,.59.08,1.56.16s2.39.19,4,.29c1.42.09,2.92.18,6,.3s7.5.28,11.51.41c4.4.14,8.83.26,18.48.45,9.46.19,25.15.48,40.84.72,15.22.22,30.84.41,46.41.54Zm195.93-4.61c.16-4.12.18-8.75.06-13,0-1.25-.09-2.42-.16-3.58l0-.43a45.59,45.59,0,0,0-1.64-11c-.31-1.12-.68-2.11-.82-2.49a10.84,10.84,0,0,0-.48-1.14,18.23,18.23,0,0,0-1.52-2.63,15.77,15.77,0,0,0-2.91-3.15,23.09,23.09,0,0,0-5.26-3.09,28.68,28.68,0,0,0-2.9-1.08c-.58-.18-1.21-.37-1.82-.53-1.3-.33-2.74-.63-4.53-.94-2.61-.43-5.67-.8-8.62-1,2.95.21,6,.58,8.62,1,1.79.31,3.23.61,4.53.94.61.16,1.24.35,1.82.53a28.68,28.68,0,0,1,2.9,1.08,23.09,23.09,0,0,1,5.26,3.09,15.77,15.77,0,0,1,2.91,3.15,18.23,18.23,0,0,1,1.52,2.63,10.84,10.84,0,0,1,.48,1.14c.14.38.51,1.37.82,2.49a45.59,45.59,0,0,1,1.64,11l0,.43c.07,1.16.12,2.33.16,3.58C491.25,291.16,491.23,295.79,491.07,299.91Zm100.82-7c0-2,0-4,.06-6v-13a34,34,0,0,1,.78-7.22,19.74,19.74,0,0,1,.86-2.84,22,22,0,0,1,1.15-2.47,15.24,15.24,0,0,1,8.1-7.16,15.71,15.71,0,0,1,2.35-.74,16.81,16.81,0,0,0-7.07,3.59,15.89,15.89,0,0,0-3.38,4.31,22,22,0,0,0-1.15,2.47,19.74,19.74,0,0,0-.86,2.84,34,34,0,0,0-.78,7.22v13C591.91,288.9,591.89,290.9,591.89,292.91Zm-225-16.27c-.32-2.06-.6-4.16-.84-6.38-.51-4.68-.8-9.61-.86-14.36.06,4.75.35,9.68.86,14.36C366.24,272.48,366.52,274.58,366.84,276.64ZM761,262.9v0Zm0-.13v0Zm0-.25v0ZM754.1,262v0Zm-6.89-1.46v0Zm0-.4v0ZM302,255.43v0Zm13.79,0v0ZM302,255.18v0Zm6.89,0v0Zm6.9,0v0ZM302,255.05v0Zm6.89,0v0Zm6.9,0v0ZM302,254.93v0Zm6.89,0v0Zm6.9,0v0Zm-6.9-.13v0Zm-6.89,0v0Zm13.79,0v0Zm49.35-.57a157.07,157.07,0,0,1,.88-16.14c.28-2.62.61-5.09,1-7.54s.88-4.9,1.41-7.17,1.05-4.26,1.69-6.31,1.3-4,2-5.83,1.39-3.4,2.19-5.08,1.57-3.15,2.43-4.67a68.89,68.89,0,0,1,7.9-11.36c1-1.15,1.95-2.22,3.42-3.64a71.88,71.88,0,0,1,5.79-5.05,60.66,60.66,0,0,1,7.13-4.69,67,67,0,0,1,8.33-4,75.63,75.63,0,0,1,8.35-2.69c2.54-.66,4.41-1,6.05-1.29l.15,0-.15,0c-1.64.28-3.51.63-6.05,1.29a75.63,75.63,0,0,0-8.35,2.69,67,67,0,0,0-8.33,4,60.66,60.66,0,0,0-7.13,4.69,71.88,71.88,0,0,0-5.79,5.05c-1.47,1.42-2.43,2.49-3.42,3.64a68.89,68.89,0,0,0-7.9,11.36c-.86,1.52-1.67,3.09-2.43,4.67s-1.52,3.34-2.19,5.08-1.43,3.87-2,5.83-1.19,4.11-1.69,6.31-1,4.75-1.41,7.17-.74,4.92-1,7.54A157.07,157.07,0,0,0,365.13,254.23Zm131.25-.62Zm0,0q-3.53,0-7.49-.05Q492.84,253.61,496.37,253.61Zm3.4,0h0Zm-11,0h0Zm116.42,0h0Zm9.12-.3a24,24,0,0,0-3.63-.25A24,24,0,0,1,614.33,253.21Zm-140.19-.05-6.32-.27c-2.16-.1-4.38-.22-6.62-.34,2.24.12,4.46.24,6.62.34ZM197.39,253c6.52-.16,14-.32,20.86-.46,7.13-.14,14.85-.27,23-.39-8.17.12-15.89.25-23,.39C211.42,252.68,203.91,252.84,197.39,253Zm413.31,0ZM592,252V189.13a44.93,44.93,0,0,1,.48-6.53,21,21,0,0,1,1.25-4.62,15.49,15.49,0,0,1,1.63-3.17,15.85,15.85,0,0,1,5.75-5,16.17,16.17,0,0,1,1.78-.78,30.19,30.19,0,0,1,4.6-1.29v0a30.19,30.19,0,0,0-4.6,1.29,16.17,16.17,0,0,0-1.78.78,15.85,15.85,0,0,0-5.75,5,15.49,15.49,0,0,0-1.63,3.17,21,21,0,0,0-1.25,4.62,44.93,44.93,0,0,0-.48,6.53Zm20-7.52,47-37.36c4.58-3.65,9.42-7.4,14-10.87,2.27-1.72,4.39-3.3,6.48-4.84s4.26-3.1,6.19-4.47,3.59-2.52,5.32-3.69,3.38-2.25,5-3.28,2.87-1.81,4.3-2.67,2.75-1.63,4.08-2.39a121.22,121.22,0,0,1,14.37-7v0a121.22,121.22,0,0,0-14.37,7c-1.33.76-2.74,1.58-4.08,2.39s-2.8,1.71-4.3,2.67-3.31,2.16-5,3.28-3.42,2.34-5.32,3.69-4.07,2.92-6.19,4.47-4.21,3.12-6.48,4.84c-4.57,3.47-9.41,7.22-14,10.87ZM506.31,214.62l-2.54-.37a74.66,74.66,0,0,0-2.44-8.6,59,59,0,0,0-3.47-8.15,56.49,56.49,0,0,0-2.85-4.92,52.47,52.47,0,0,0-5.51-7,51.57,51.57,0,0,0-6.66-6c-1.79-1.34-3.53-2.46-4.68-3.15a51.42,51.42,0,0,0-7.55-3.83,64.45,64.45,0,0,0-10.9-3.37,86.17,86.17,0,0,0-13.32-1.78h0a86.17,86.17,0,0,1,13.32,1.78,64.45,64.45,0,0,1,10.9,3.37,51.42,51.42,0,0,1,7.55,3.83c1.15.69,2.89,1.81,4.68,3.15a51.57,51.57,0,0,1,6.66,6,52.47,52.47,0,0,1,5.51,7,56.49,56.49,0,0,1,2.85,4.92,59,59,0,0,1,3.47,8.15,74.66,74.66,0,0,1,2.44,8.6l2.54.37,11.13-31.71ZM295.14,205c-5.69-.11-11.46-.24-17.15-.39s-11.44-.31-15.79-.45-7.31-.25-10.37-.41-6-.32-7.77-.44-2.23-.15-2.74-.21c-.95-.1-1.68-.18-2.11-.26-.26-.05-.49-.11-.55-.13l-.14,0a.3.3,0,0,1-.27-.19.3.3,0,0,0,.27.19l.14,0c.06,0,.29.08.55.13.43.08,1.16.16,2.11.26.51.06,1,.1,2.74.21s4.78.3,7.77.44,6.07.28,10.37.41,10.1.31,15.79.45S289.45,204.86,295.14,205Zm472.68,0,2.15,0c8.07-.16,16.42-.33,24.63-.58,4.41-.14,9.21-.3,12.84-.44,3.29-.13,5.42-.23,7.62-.36,2-.12,4.12-.27,5.41-.36s1.48-.12,1.79-.16l.25,0a11.09,11.09,0,0,0,1.27-.18c.31-.06.62-.14.69-.16s.21-.11.21-.18h0c0,.07-.08.14-.21.18s-.38.1-.69.16a11.09,11.09,0,0,1-1.27.18l-.25,0c-.31,0-.62.07-1.79.16s-3.39.24-5.41.36c-2.2.13-4.33.23-7.62.36-3.63.14-8.43.3-12.84.44-8.21.25-16.56.42-24.63.58Zm-498.77-4.38c7.95-.24,16-.4,23.85-.56C285.08,200.17,277,200.33,269.05,200.57Zm26.1-5.37c0-4.28,0-8.66.13-13,.05-2,.13-4.21.22-6-.09,1.83-.17,4-.22,6C295.16,186.54,295.15,190.92,295.15,195.2Zm272.52-6.08a52.27,52.27,0,0,0-.34-5.94c-.1-.81-.22-1.49-.37-2.19s-.33-1.3-.53-1.94a13.44,13.44,0,0,0-2.42-4.72,16.6,16.6,0,0,0-3.43-3.17,17.33,17.33,0,0,0-3.38-1.84,40.1,40.1,0,0,0-4.75-1.63,40.1,40.1,0,0,1,4.75,1.63,17.33,17.33,0,0,1,3.38,1.84,16.6,16.6,0,0,1,3.43,3.17,13.44,13.44,0,0,1,2.42,4.72c.2.64.38,1.31.53,1.94s.27,1.38.37,2.19A52.27,52.27,0,0,1,567.67,189.12ZM746.77,176a38.65,38.65,0,0,0-.64-5.69c-.26-1.53-.52-2.95-.79-4.22.27,1.27.53,2.69.79,4.22A38.65,38.65,0,0,1,746.77,176Zm13.76-.81a51.16,51.16,0,0,0-.76-6.88A51.16,51.16,0,0,1,760.53,175.23Zm-89.3-.34a9.07,9.07,0,0,0-.22-2.09,4.86,4.86,0,0,0-.41-1.12v0a4.14,4.14,0,0,0-2-2,8.46,8.46,0,0,0-2.06-.88,28.29,28.29,0,0,0-3.44-.77,28.29,28.29,0,0,1,3.44.77,8.46,8.46,0,0,1,2.06.88,4.14,4.14,0,0,1,2,2v0a4.86,4.86,0,0,1,.41,1.12A9.07,9.07,0,0,1,671.23,174.89Zm-368.49-3.26c.12-1,.28-2.1.51-3.49C303,169.53,302.87,170.58,302.74,171.63Zm143.38-4.2c-1.66-.09-3.35-.14-5.05-.14C442.77,167.29,444.46,167.34,446.12,167.43Zm-5.06-.14h0Zm250.43-1.47Zm-111.07,0Zm0,0c-8.3,0-17-.41-27-1C563.41,165.4,572.12,165.81,580.42,165.81Zm117.11,0h0Zm.53,0h0Zm.53,0h0Zm-145.42-1h0Zm-.33,0h0Zm-131.92-2.49c2.88-.38,5.89-.7,9-.93l2.16-.15-2.16.15C426.81,161.55,423.8,161.87,420.92,162.25Zm19.61-1.32h0Zm-.72,0h0Zm-127.45-2.12a104.84,104.84,0,0,1,5.89-15.92c.15-.32.31-.66.63-1.29-.32.63-.48,1-.63,1.29A104.84,104.84,0,0,0,312.36,158.81Zm12.12-13c.14-.32.29-.64.61-1.26C324.77,145.21,324.62,145.53,324.48,145.85Zm.7-1.45c.24-.46.69-1.36,1.2-2.32s.87-1.67,1.32-2.48c-.45.81-.89,1.65-1.32,2.48S325.42,143.94,325.18,144.4Zm426.38-3.14-.19-.41c-.33-.73-.52-1.17-1-2.09.46.92.65,1.36,1,2.09Zm-446.63-2.37c.07-.15.13-.29.2-.43l.19-.43-.19.43C305.06,138.6,305,138.74,304.93,138.89Zm32.13-13c1.8-2.18,3.6-4.14,4.8-5.41C340.66,121.76,338.86,123.72,337.06,125.9Zm-5.32-4.37c1.95-2.36,3.88-4.47,5.15-5.82C335.62,117.06,333.69,119.17,331.74,121.53ZM342.3,92.94c1.56-1,3.7-2.44,5.78-3.77C346,90.5,343.86,91.9,342.3,92.94ZM515.36,22.06a88.87,88.87,0,0,1,19.17-1.33A88.87,88.87,0,0,0,515.36,22.06Zm19.24-1.32h0Zm-20.2-5.51.11,0Zm20.38-1.38c-1.24,0-2.47-.06-3.68-.06C532.31,13.79,533.54,13.81,534.78,13.85Zm-3.69-.06h0Zm-18.18-5.3.23,0ZM535,7c-1.36,0-2.71-.07-4-.07C532.28,6.89,533.63,6.91,535,7Zm-4-.07ZM512,1.65l.1,0ZM535,.06c-1.37,0-2.71-.06-4-.06C532.26,0,533.6,0,535,.06ZM530.92,0h0Z" transform="translate(0 0)" fill="#00007f"/><path d="M18.93,649.87c2.59.79,5.21,1.48,7.46,2A47.18,47.18,0,0,0,37,653a44.23,44.23,0,0,0,11.58-1.55A34.73,34.73,0,0,0,58.42,647a40.69,40.69,0,0,0,12.33-12.65,34.29,34.29,0,0,0,2.83-5.93,38.79,38.79,0,0,0,2.14-8.56,101.62,101.62,0,0,0,.75-13.42V558.82a27.88,27.88,0,0,1,.24-3.74,9.52,9.52,0,0,1,2.12-5.38,8.36,8.36,0,0,1,4-2.8,18.59,18.59,0,0,1,2.61-.75v-1.78c-3,.19-5.91.35-8.11.46-4.43.2-5.84.21-8.59.2-1.37,0-3.09,0-4.89-.06s-3.67-.11-5.67-.21-4.12-.23-6.25-.39v1.77a25.39,25.39,0,0,1,3.74,1.2,10,10,0,0,1,3.69,2.47c1.2,1.25,2,2.34,2.45,5.33a25.35,25.35,0,0,1,.25,3.68v43.25c0,7.12-.23,14.24-.64,19.42a70.18,70.18,0,0,1-1.56,11c-1.23,5.25-2.67,7.7-3.82,9.32a12.26,12.26,0,0,1-4.84,4.33A13.51,13.51,0,0,1,47,647.45a18.86,18.86,0,0,1-7.21-.37,14.69,14.69,0,0,1-7.36-4.51,20.09,20.09,0,0,1-3.45-5,38.39,38.39,0,0,1-2.77-8.06H24.86Z" transform="translate(0 0)" fill="#00007f" fill-rule="evenodd"/><path d="M36.86,653Zm0,0a47.43,47.43,0,0,1-10.47-1.19c-2.28-.48-4.93-1.17-7.46-2,2.53.78,5.18,1.47,7.46,2A47.43,47.43,0,0,0,36.86,653Zm.11,0a44.21,44.21,0,0,0,11.58-1.55A34.65,34.65,0,0,0,58.42,647a41.71,41.71,0,0,0,6.84-5.62,38.56,38.56,0,0,0,5.49-7,35,35,0,0,0,2.84-5.93,39.75,39.75,0,0,0,2.13-8.56,103.67,103.67,0,0,0,.75-13.42V558.82a28,28,0,0,1,.24-3.74c.44-3.09,1.22-4.26,2.13-5.38a8.24,8.24,0,0,1,4-2.8,17.19,17.19,0,0,1,2.61-.75v0a17.19,17.19,0,0,0-2.61.75,8.24,8.24,0,0,0-4,2.8c-.91,1.12-1.69,2.29-2.13,5.38a28,28,0,0,0-.24,3.74v47.61a103.67,103.67,0,0,1-.75,13.42,39.75,39.75,0,0,1-2.13,8.56,35,35,0,0,1-2.84,5.93,38.56,38.56,0,0,1-5.49,7A41.71,41.71,0,0,1,58.42,647a34.65,34.65,0,0,1-9.87,4.47A44.21,44.21,0,0,1,37,653Zm7.38-5.38a18.11,18.11,0,0,1-4.57-.55,14.2,14.2,0,0,1-6.09-3.28,14.2,14.2,0,0,0,6.09,3.28,18.11,18.11,0,0,0,4.57.55h0Zm2.64-.18h0Zm0,0a13.35,13.35,0,0,0,4.22-1.3A13.35,13.35,0,0,1,47,647.45Zm4.24-1.31A12,12,0,0,0,56,641.92,12,12,0,0,1,51.24,646.14ZM62.1,558.82a25.35,25.35,0,0,0-.25-3.68c-.49-3.09-1.32-4.16-2.45-5.33a10.07,10.07,0,0,0-3.69-2.47,25.34,25.34,0,0,0-3.74-1.2,25.34,25.34,0,0,1,3.74,1.2,10.07,10.07,0,0,1,3.69,2.47c1.13,1.17,2,2.24,2.45,5.33A25.35,25.35,0,0,1,62.1,558.82ZM69.77,545h0Zm-.9,0h0Zm0,0h0ZM68,545c-1.32,0-2.74,0-4.08-.06-1.7,0-3.41-.11-5.19-.19,1.78.08,3.49.15,5.19.19C65.23,545,66.65,545,68,545Zm5.26,0c1.08,0,2.37-.08,4.14-.16C75.6,544.91,74.31,545,73.23,545Z" transform="translate(0 0)" fill="#00007f"/><path d="M153.59,614.62a52.81,52.81,0,0,0,19.71,27.11,56.62,56.62,0,0,0,16.31,8.13,68,68,0,0,0,19.81,3,64,64,0,0,0,19.43-2.94A54.92,54.92,0,0,0,268,597a57.09,57.09,0,0,0-2.64-17.17,51.94,51.94,0,0,0-19.49-26.75A56,56,0,0,0,229.54,545,70.21,70.21,0,0,0,189,545a55.4,55.4,0,0,0-16.18,8,51.08,51.08,0,0,0-19.29,26.57,60,60,0,0,0,0,35.06m14.58-17.45a88.69,88.69,0,0,1,2-19.15,49,49,0,0,1,5-13.14C179,558,183.3,554,188.64,550.94a35,35,0,0,1,9.19-3.68,48.73,48.73,0,0,1,11.48-1.36,46,46,0,0,1,11.27,1.34,34,34,0,0,1,16.59,9.43,39.66,39.66,0,0,1,6.34,8.54,49.84,49.84,0,0,1,5.08,13.24,81.43,81.43,0,0,1,2,19.37,84.34,84.34,0,0,1-2.77,20.76A45.42,45.42,0,0,1,241.09,633a38.16,38.16,0,0,1-8.62,8.86,34.13,34.13,0,0,1-10.4,5.23,44.87,44.87,0,0,1-12.28,1.87,42.9,42.9,0,0,1-11.37-1.33,34.38,34.38,0,0,1-16.68-9.52,39.48,39.48,0,0,1-6.43-8.64,50,50,0,0,1-5.09-13.29A85.49,85.49,0,0,1,168.17,597.17Z" transform="translate(0 0)" fill="#00007f" fill-rule="evenodd"/><path d="M209.5,652.83Zm0,0h0Zm0,0h0Zm0,0h0a67.52,67.52,0,0,1-19.81-3,56.38,56.38,0,0,1-16.31-8.13,54,54,0,0,1-12.09-12,52.83,52.83,0,0,1-7.62-15.12A58.56,58.56,0,0,1,151,597.08v0a58.56,58.56,0,0,0,2.63,17.54,52.83,52.83,0,0,0,7.62,15.12,54,54,0,0,0,12.09,12,56.38,56.38,0,0,0,16.31,8.13,67.52,67.52,0,0,0,19.81,3Zm9.86-.73h.11a62.19,62.19,0,0,0,9.45-2.2,58.28,58.28,0,0,0,12.67-5.74A56.11,56.11,0,0,0,252,635.94a54.3,54.3,0,0,0,8-10.18,53.72,53.72,0,0,0,5.36-11.63A55.61,55.61,0,0,0,268,597.07a55.61,55.61,0,0,1-2.65,17.06A53.72,53.72,0,0,1,260,625.76a54.3,54.3,0,0,1-8,10.18,56.11,56.11,0,0,1-10.47,8.21,58.28,58.28,0,0,1-12.67,5.74,62.19,62.19,0,0,1-9.45,2.2Zm-10.16-3.18a42.64,42.64,0,0,1-10.71-1.33,42.64,42.64,0,0,0,10.71,1.33h0Zm.58,0h0Zm0,0h0Zm22.74-7.1a38.3,38.3,0,0,0,8.55-8.76A38.3,38.3,0,0,1,232.47,641.82Zm-50.73-3.75a39.51,39.51,0,0,1-6.32-8.44A39.51,39.51,0,0,0,181.74,638.07Zm-13.57-41a88,88,0,0,1,2-19.09,48.9,48.9,0,0,1,5-13.14,38.5,38.5,0,0,1,6.19-8.41,33.77,33.77,0,0,1,7.29-5.53,34.94,34.94,0,0,1,9.19-3.68,49.18,49.18,0,0,1,11.48-1.36h0a49.18,49.18,0,0,0-11.48,1.36,34.94,34.94,0,0,0-9.19,3.68,33.77,33.77,0,0,0-7.29,5.53,38.5,38.5,0,0,0-6.19,8.41,48.9,48.9,0,0,0-5,13.14A88,88,0,0,0,168.17,597.11Zm82.43-.4a80.39,80.39,0,0,0-2-18.26,50.64,50.64,0,0,0-5.07-13.24,39.79,39.79,0,0,0-6.35-8.54,34.34,34.34,0,0,0-7.45-5.8,35.61,35.61,0,0,0-9.14-3.63,46.48,46.48,0,0,0-11.22-1.34,46.48,46.48,0,0,1,11.22,1.34,35.61,35.61,0,0,1,9.14,3.63,34.34,34.34,0,0,1,7.45,5.8,39.79,39.79,0,0,1,6.35,8.54,50.64,50.64,0,0,1,5.07,13.24A80.39,80.39,0,0,1,250.6,596.71ZM209.36,545.9ZM189,545l.16-.05Zm20.19-3Z" transform="translate(0 0)" fill="#00007f"/><path d="M331.36,650.28c2.21-.11,4.42-.21,6.49-.28s4-.13,5.92-.16,3.81-.05,5.35-.05,2.7,0,4.26,0,3.54.06,6.21.14,6.07.19,9.46.32v-1.76a15.67,15.67,0,0,1-4.61-1.83,9.26,9.26,0,0,1-2.88-2.66,14.55,14.55,0,0,1-1.44-2.46,20.35,20.35,0,0,1-1.24-3.68,39.78,39.78,0,0,1-1-7.49c-.27-4-.38-10.06-.38-16.1V558.82a22.61,22.61,0,0,1,.38-4.23,9.79,9.79,0,0,1,2.13-4.75,8.85,8.85,0,0,1,3.78-2.72,18.6,18.6,0,0,1,3.36-1v-1.75h-.43c-.11,0-.21,0-1.42.09s-3.53.25-6.29.36-6,.16-7.93.18-2.68,0-3.8,0-2.66,0-5.08-.16-5.73-.27-9-.47v1.75a21.29,21.29,0,0,1,3.63,1.26,9.26,9.26,0,0,1,3.75,2.92,9.59,9.59,0,0,1,1.94,4.52,23,23,0,0,1,.33,4v54.51c.14,6.41,0,12.83-.31,17.23A40,40,0,0,1,341.2,639a15.32,15.32,0,0,1-1.42,3.51,10.82,10.82,0,0,1-2.42,3.17,10.52,10.52,0,0,1-3.36,2,20.18,20.18,0,0,1-2.64.79Z" transform="translate(0 0)" fill="#00007f" fill-rule="evenodd"/><path d="M331.36,650.28c2.19-.11,4.38-.21,6.49-.28s4-.13,5.92-.16c1.74,0,3.64-.05,5.35-.05h0c-1.71,0-3.61,0-5.35.05-2,0-3.9.09-5.92.16S333.55,650.17,331.36,650.28Zm37.69,0c-3.35-.13-6.7-.24-9.45-.32-2.92-.09-5-.12-6.22-.14,1.27,0,3.3,0,6.22.14,2.75.08,6.1.19,9.45.32v0Zm-15.68-.46h0Zm-.1,0h0Zm-.18,0h0Zm-.07,0h0Zm-.08,0-3.32,0Zm-3.32,0Zm-15-2.34a10.13,10.13,0,0,0,2.7-1.73,10.25,10.25,0,0,0,2.14-2.67,10.25,10.25,0,0,1-2.14,2.67A10.13,10.13,0,0,1,334.66,647.45Zm8.17-29.11c0-1.67,0-3.35-.05-5C342.82,615,342.83,616.67,342.83,618.34Zm14.64-4V558.82a22,22,0,0,1,.38-4.23,9.7,9.7,0,0,1,2.13-4.75,9,9,0,0,1,3.78-2.72,18,18,0,0,1,3.36-1v0a18,18,0,0,0-3.36,1,9,9,0,0,0-3.78,2.72,9.7,9.7,0,0,0-2.13,4.75,22,22,0,0,0-.38,4.23Zm-14.69-55.48a23.07,23.07,0,0,0-.33-4,9.58,9.58,0,0,0-1.94-4.52,9.22,9.22,0,0,0-3.75-2.92,22.29,22.29,0,0,0-3.63-1.26,22.29,22.29,0,0,1,3.63,1.26,9.22,9.22,0,0,1,3.75,2.92,9.58,9.58,0,0,1,1.94,4.52A23.07,23.07,0,0,1,342.78,558.82ZM349.33,545l-1.9,0c1,0,1.78,0,3.62,0,1.2,0,4.05,0,6.78-.14-2.73.09-5.58.13-6.78.14Zm-1.91,0h0Zm0,0h0Zm0,0h0Zm-.1,0Zm0,0h0Z" transform="translate(0 0)" fill="#00007f"/><path d="M426.27,649.79h32.22v-1.74a19.35,19.35,0,0,1-2.57-1,12.94,12.94,0,0,1-5.36-4.42,17.47,17.47,0,0,1-1.54-2.54,27.57,27.57,0,0,1-1.67-4.26c-.61-2-1.3-4.6-1.81-11.13s-.72-16.94-.72-27.32V557.89C458.12,572,471.29,586.3,482,598.18s19.09,21.35,26.54,30,14,16.61,20.44,24.63h1.85V591.79c-.16-7.84.06-15.7.51-21.24a52.69,52.69,0,0,1,1.81-11.11,23,23,0,0,1,2.1-5,17,17,0,0,1,3.9-4.95,19.71,19.71,0,0,1,5.67-3.35v-1.57c-3.24.19-6.49.35-8.86.45s-3.86.15-5.09.17l-3,0c-1.62,0-2.52,0-6.85-.17-2.17-.11-5.2-.28-8.23-.48v1.56a25.74,25.74,0,0,1,3.34,1.87,17.89,17.89,0,0,1,4.51,4.23,19.54,19.54,0,0,1,1.74,2.79,24.24,24.24,0,0,1,1.76,4.59,50.64,50.64,0,0,1,1.71,10,181.72,181.72,0,0,1,.45,18.52V623c-6.14-5.8-12.16-11.71-18.87-18.55s-14.14-14.62-23.27-24.67-20-22.4-30.65-34.9l-4.09.1-3.77,0h-3.57c-1.84,0-2,0-5.54-.08l-6.9-.25v1.74a26.13,26.13,0,0,1,3.62,1.68,11.27,11.27,0,0,1,5,4.77c.64,1.13,1.37,2.55,1.79,6.6a54.26,54.26,0,0,1,.18,7v35.53c0,8-.17,15.94-.63,21.62a59.13,59.13,0,0,1-1.83,11.49,25.13,25.13,0,0,1-2.06,5.17,15.8,15.8,0,0,1-3.35,4.52,12,12,0,0,1-3.68,2.36,15.51,15.51,0,0,1-2.44.81Z" transform="translate(0 0)" fill="#00007f" fill-rule="evenodd"/><path d="M530.86,652.85H529c-6.56-8.18-13.06-16-20.44-24.63-8.05-9.39-16.48-18.94-26.54-30-11-12.2-24.25-26.5-37.22-40.29v0C457.79,571.68,471,586,482,598.18c10.06,11.1,18.49,20.65,26.54,30,7.38,8.63,13.88,16.45,20.44,24.63h1.84v0Zm-104.59-3.06h32.22v0Zm6.12-4.92a13.57,13.57,0,0,0,1.75-1.94A13.63,13.63,0,0,1,432.39,644.87Zm3.32-4.48,0,0a24.6,24.6,0,0,0,1.75-4.14,24.6,24.6,0,0,1-1.75,4.14Zm95.11-53.62c0-5.88.19-11.69.56-16.22C531,575.08,530.82,580.89,530.82,586.77Zm-4.45-3.57c0-5-.18-9.81-.51-13.63a50,50,0,0,0-1.71-10,23.87,23.87,0,0,0-1.76-4.59,20.27,20.27,0,0,0-1.74-2.79,17.52,17.52,0,0,0-4.51-4.23,27.14,27.14,0,0,0-3.34-1.87,27.14,27.14,0,0,1,3.34,1.87,17.52,17.52,0,0,1,4.51,4.23,20.27,20.27,0,0,1,1.74,2.79,23.87,23.87,0,0,1,1.76,4.59,50,50,0,0,1,1.71,10C526.19,573.39,526.37,578.25,526.37,583.2Zm-86.11-16.66a54.94,54.94,0,0,0-.18-7c-.43-4.2-1.22-5.58-1.79-6.6a11.35,11.35,0,0,0-5-4.77,26.53,26.53,0,0,0-3.62-1.68,26.53,26.53,0,0,1,3.62,1.68,11.35,11.35,0,0,1,5,4.77c.57,1,1.36,2.4,1.79,6.6A54.94,54.94,0,0,1,440.26,566.54Zm91.84-2.21a37.91,37.91,0,0,1,1.09-4.89,23.57,23.57,0,0,1,2.09-5,17,17,0,0,1,3.91-4.95,19.68,19.68,0,0,1,5.67-3.35v0a19.68,19.68,0,0,0-5.67,3.35,17,17,0,0,0-3.91,4.95,23.57,23.57,0,0,0-2.09,5A40.21,40.21,0,0,0,532.1,564.33Zm-5.24-19.13Zm0,0c-1.12,0-2.32,0-5.29-.16C524.54,545.18,525.74,545.2,526.86,545.2Zm.43,0h0Zm.11,0h0Zm.54,0,3,0Zm-6.38-.15Zm0,0h0Zm0,0h0Zm0,0h0Zm-80.55,0Zm0,0c-.91,0-1.63,0-3.85-.08C439.3,545,440,545,440.93,545Zm.5,0h0Zm.11,0h0Zm79.65,0h0ZM437.08,545h0Zm-.14,0h0Zm-.14,0h0Zm0,0Zm0,0h0Zm-.05,0h0Z" transform="translate(0 0)" fill="#00007f"/><path d="M602.4,544.87v1.77a12,12,0,0,1,4.36,1.37,7.58,7.58,0,0,1,3.44,4.1,13.7,13.7,0,0,1,.86,3,29.51,29.51,0,0,1,.35,4.66v53.54c0,7.35-.19,14.71-.55,19.26a28.74,28.74,0,0,1-1.28,7.58,12.3,12.3,0,0,1-2.29,4.47,8.52,8.52,0,0,1-4.24,2.92,18.09,18.09,0,0,1-2.42.63V650c1.79-.05,3.59-.08,5.12-.11,3.12-.05,5-.06,6.89-.06h84.15l8.36-25.09-1.42-.24a56.2,56.2,0,0,1-6.38,7.33,42.83,42.83,0,0,1-6.79,5.29,46.06,46.06,0,0,1-8.14,4,55.59,55.59,0,0,1-13.13,3.31,147.87,147.87,0,0,1-21.91,1.13c-3.76.1-7.53,0-10.13-.17a22.56,22.56,0,0,1-5-.8,7.94,7.94,0,0,1-3.27-1.67,6.8,6.8,0,0,1-2-2.93,8,8,0,0,1-.36-1.24,22.91,22.91,0,0,1-.41-4.44c-.14-3.3-.36-9.24-.36-15.18V596.53l3.77-.3h23.62a75.5,75.5,0,0,1,9.7.58,30.89,30.89,0,0,1,6.17,1.46,19.59,19.59,0,0,1,6.53,3.54,17.29,17.29,0,0,1,4.17,5,26.35,26.35,0,0,1,1.74,3.73h1.4V577.84h-1.4a27.9,27.9,0,0,1-1.91,3.91,16.44,16.44,0,0,1-6.93,6.76,21.69,21.69,0,0,1-3.63,1.57,29.7,29.7,0,0,1-6,1.38,78.87,78.87,0,0,1-9.79.54H634.8l-2-.06-7-.25V549.42c2.48-.07,4.88-.12,6.66-.14h12.21a140.85,140.85,0,0,1,20.27.84,49.36,49.36,0,0,1,11.78,2.82,44.36,44.36,0,0,1,7.47,3.56,41.45,41.45,0,0,1,6.72,5,60.72,60.72,0,0,1,6.77,7.3l1.53-.65L690.83,545h-76c-3.37,0-5.57,0-7.45-.07S603.94,544.9,602.4,544.87Z" transform="translate(0 0)" fill="#00007f" fill-rule="evenodd"/><path d="M600.63,650l5.12-.11c3.31-.05,5.27-.06,6.89-.06h84.15l8.36-25.09-8.36,25.09H612.64c-1.62,0-3.58,0-6.89.06Zm43.58-4.37c-2.53,0-5-.07-6.92-.21,2.75.2,6.52.26,10.08.17C646.33,645.58,645.26,645.59,644.21,645.59Zm6.22,0q-1.53,0-3.06,0c1.71,0,3.43,0,5.14,0Zm-13.16-.2h0Zm45.15-4.27a47.64,47.64,0,0,0,7.84-3.84A47.64,47.64,0,0,1,682.42,641.11Zm-56.65-22V596.53l3.77-.3h23.62a74.7,74.7,0,0,1,9.7.58,30.5,30.5,0,0,1,6.17,1.46,19.83,19.83,0,0,1,6.53,3.54,17,17,0,0,1,4.17,5,26.73,26.73,0,0,1,1.74,3.73h1.4v0h-1.4a26.73,26.73,0,0,0-1.74-3.73,17,17,0,0,0-4.17-5,19.83,19.83,0,0,0-6.53-3.54,30.5,30.5,0,0,0-6.17-1.46,74.7,74.7,0,0,0-9.7-.58H629.54l-3.77.3ZM635.24,592h-.44l-2-.06-6.61-.23,6.61.23,2,.06Zm18.2,0a77.31,77.31,0,0,0,9.51-.54A77.31,77.31,0,0,1,653.44,592Zm-27.67-.32V549.42c2.24-.07,4.67-.12,6.66-.14h0c-2,0-4.42.07-6.66.14Zm37.18-.22a30.55,30.55,0,0,0,5.94-1.34A30.55,30.55,0,0,1,663,591.46Zm6.14-1.41a21.9,21.9,0,0,0,3.54-1.54A21.9,21.9,0,0,1,669.09,590.05Zm10.47-8.3a27.71,27.71,0,0,0,1.86-3.78A27.71,27.71,0,0,1,679.56,581.75Zm18.09-13a60.33,60.33,0,0,0-6.77-7.3,41,41,0,0,0-6.72-5,44.18,44.18,0,0,0-7.47-3.56,49,49,0,0,0-11.78-2.82h0a49,49,0,0,1,11.78,2.82,44.18,44.18,0,0,1,7.47,3.56,41,41,0,0,1,6.72,5,60.33,60.33,0,0,1,6.77,7.3l1.53-.65Zm-86.24-9a29.7,29.7,0,0,0-.35-4.66,13.87,13.87,0,0,0-.86-3,7.62,7.62,0,0,0-3.44-4.1,11.79,11.79,0,0,0-4.36-1.37,11.79,11.79,0,0,1,4.36,1.37,7.62,7.62,0,0,1,3.44,4.1,13.87,13.87,0,0,1,.86,3A29.7,29.7,0,0,1,611.41,559.79Zm53.45-9.69h0Zm0,0h0Zm0,0h0Zm0,0h0Zm0,0a134.54,134.54,0,0,0-15.86-.87A134.54,134.54,0,0,1,664.69,550.08Zm-20-.81h0Zm4.11-.06ZM627.27,545h0Zm-12.47,0c-3.31,0-5.46,0-7.28-.07C609.34,545,611.49,545,614.8,545Z" transform="translate(0 0)" fill="#00007f"/><path d="M854.46,650l3.75-.09,3.23-.06h2.66c1.54,0,2.11,0,5.92.09,2,0,4.94.14,7.88.24v-2.24a10,10,0,0,1-5.1-2.81,15.29,15.29,0,0,1-2-2.43,38.83,38.83,0,0,1-3.75-7.22c-1.94-4.44-4.83-11.68-7.5-19a35.64,35.64,0,0,0-4.61-7.7,31.2,31.2,0,0,0-6.23-6,35.69,35.69,0,0,0-8.81-4.68,51,51,0,0,0-12-2.69,76.24,76.24,0,0,0,14.21-1.57,44.77,44.77,0,0,0,10-3.39c5.18-2.49,7.86-5,9.85-7.5a19.43,19.43,0,0,0,3.88-8.13,21.5,21.5,0,0,0,.49-4.85,22.55,22.55,0,0,0-.67-5.21,19.39,19.39,0,0,0-5.49-9.32,25.77,25.77,0,0,0-5.91-4.39,43,43,0,0,0-9-3.59,65.38,65.38,0,0,0-6.81-1.32,98.54,98.54,0,0,0-10.59-.84c-5.25-.21-12.94-.27-20.63-.27h-27.8l-7.65-.06-6.31-.09v1.77a18.86,18.86,0,0,1,2.56.62,7.13,7.13,0,0,1,3.79,2.42,7.4,7.4,0,0,1,1.55,3,19.3,19.3,0,0,1,.75,4,66,66,0,0,1,.19,7.45v49.21c0,7.23-.15,14.48-.49,19a30,30,0,0,1-1.2,7.51,13.42,13.42,0,0,1-2.23,4.58,9.52,9.52,0,0,1-4.34,3.3,18.46,18.46,0,0,1-2.51.83v1.76c4.34-.23,8.47-.37,12.11-.44,1.84,0,3.6-.05,5.27-.05,3.29,0,6.33,0,11,.19,2.32.07,5,.18,7.69.3v-1.75a19.3,19.3,0,0,1-2.44-.84,9.66,9.66,0,0,1-4.42-3.42,15.55,15.55,0,0,1-2.63-5.94,40.58,40.58,0,0,1-1.12-8c-.27-4.24-.33-10.61-.33-17V596.54c2-.12,3.94-.22,5.4-.3,2.87-.14,3.88-.17,4.94-.17a119.24,119.24,0,0,1,15.88.64,38.59,38.59,0,0,1,9,2,29.51,29.51,0,0,1,5.1,2.31,25.57,25.57,0,0,1,7.46,6.44,33.75,33.75,0,0,1,3.69,5.57,63.33,63.33,0,0,1,3.53,8.24c3.44,9.69,6.75,19.34,10.85,28.64m-65.82-58.26V549.58l7.13-.18c4.55-.09,8.6-.13,12.7-.13a124.37,124.37,0,0,1,16.41.94,49.19,49.19,0,0,1,9.87,2.25,33,33,0,0,1,5.38,2.33,18.44,18.44,0,0,1,5.45,4.35,15.05,15.05,0,0,1,3.52,7.74,25.5,25.5,0,0,1-.68,10.34,14.42,14.42,0,0,1-3.83,6.33,18.34,18.34,0,0,1-5.23,3.59,31.17,31.17,0,0,1-5.78,2.09,70.56,70.56,0,0,1-13,2.11c-6.32.55-15.11.82-23.87.66h-.3l-1.52-.06Z" transform="translate(0 0)" fill="#00007f" fill-rule="evenodd"/><path d="M763.5,650.28c4.13-.22,8.32-.37,12.11-.44,1.76,0,3.54-.05,5.27-.05h0c-1.73,0-3.51,0-5.27.05C771.82,649.91,767.63,650.06,763.5,650.28Zm36.08,0c-2.69-.12-5.35-.23-7.69-.3-4.77-.16-7.79-.19-10.77-.19h0c3,0,6,0,10.77.19,2.34.07,5,.18,7.69.3v0Zm78.32-.16c-2.88-.1-5.83-.19-7.88-.24,2.05,0,5,.14,7.88.24v0ZM854.46,650c-3.62-8.2-6.68-16.84-9.63-25.19l-1.22-3.45a61.54,61.54,0,0,0-3.53-8.24,33.43,33.43,0,0,0-3.69-5.57,25.42,25.42,0,0,0-7.46-6.44,30.32,30.32,0,0,0-5.1-2.31,38.73,38.73,0,0,0-9-2h0a38.73,38.73,0,0,1,9,2,30.32,30.32,0,0,1,5.1,2.31,25.42,25.42,0,0,1,7.46,6.44,33.43,33.43,0,0,1,3.69,5.57,61.54,61.54,0,0,1,3.53,8.24l1.22,3.45c2.95,8.35,6,17,9.63,25.19l3.75-.09,3.23-.06h0l-3.23.06Zm15.54-.07h0Zm0,0h0Zm-.05,0h0Zm-.18,0h0Zm0,0c-2.82-.07-3.76-.08-4.79-.08C865.93,649.79,866.87,649.8,869.69,649.87Zm-88.78-.08h0Zm0,0h0Zm0,0h0Zm0,0h0Zm0,0h0Zm83.87,0Zm-67.77-2.1a9.67,9.67,0,0,1-4.36-3.36A9.67,9.67,0,0,0,797.13,647.69Zm-7-9.38a39.7,39.7,0,0,1-1.12-8A39.7,39.7,0,0,0,790.09,638.31Zm-1.45-25V596.54l5.4-.3-5.4.3Zm26.11-16.63h0Zm0,0A114.57,114.57,0,0,0,802,596,114.57,114.57,0,0,1,814.72,596.69Zm-20.66-.45h0Zm0,0h0Zm0,0h0Zm0,0h0Zm0,0h0Zm.09,0Zm0,0h0Zm.12,0h0Zm.06,0h0Zm4.51-.15h0Zm0,0h0Zm-.16,0Zm3.19,0Zm25.93-.63a76.09,76.09,0,0,0,14.21-1.57,44.84,44.84,0,0,0,10-3.39,32.41,32.41,0,0,0,6.12-3.73A22.57,22.57,0,0,0,862,583a19.45,19.45,0,0,0,3.88-8.13,21.76,21.76,0,0,0,.49-4.85,21.76,21.76,0,0,1-.49,4.85A19.45,19.45,0,0,1,862,583a22.57,22.57,0,0,1-3.73,3.77,32.41,32.41,0,0,1-6.12,3.73,44.84,44.84,0,0,1-10,3.39A76.09,76.09,0,0,1,827.92,595.41ZM801.73,592Zm0,0c-1.67,0-3.34,0-5,0C798.38,592,800.06,592,801.73,592Zm-5,0h0Zm-8.09-.31V549.58l7.13-.18c4.37-.09,8.4-.13,12.7-.13h0c-4.3,0-8.33,0-12.7.13l-7.13.18Zm31.86-.34h0Zm0,0Zm.66-.06a68.36,68.36,0,0,0,12.38-2.06A68.36,68.36,0,0,1,821.2,591.29Zm28.15-21a21.12,21.12,0,0,0-.25-3.4,15.06,15.06,0,0,0-3.52-7.74,18.33,18.33,0,0,0-5.45-4.35,34.27,34.27,0,0,0-5.38-2.33,49.5,49.5,0,0,0-9.87-2.25,49.5,49.5,0,0,1,9.87,2.25,34.27,34.27,0,0,1,5.38,2.33,18.33,18.33,0,0,1,5.45,4.35,15.06,15.06,0,0,1,3.52,7.74A21.12,21.12,0,0,1,849.35,570.28Zm-75.05-8.16c0-2-.08-3.92-.22-5.45a18.57,18.57,0,0,0-.75-4,7.42,7.42,0,0,0-1.55-3,7.14,7.14,0,0,0-3.79-2.42,17.46,17.46,0,0,0-2.56-.62,17.46,17.46,0,0,1,2.56.62,7.14,7.14,0,0,1,3.79,2.42,7.42,7.42,0,0,1,1.55,3,18.57,18.57,0,0,1,.75,4C774.22,558.2,774.3,560.14,774.3,562.12Zm85.54-7a26.32,26.32,0,0,0-5.59-4.07,43.52,43.52,0,0,0-8.82-3.54,43.52,43.52,0,0,1,8.82,3.54A26.32,26.32,0,0,1,859.84,555.12Zm-35-4.92h0Zm-.12,0h0Zm0,0a126.56,126.56,0,0,0-15.59-.91A126.56,126.56,0,0,1,824.7,550.18Zm-16.15-.91h0Zm0,0h0Zm0,0h0Zm0,0h0Zm0,0h0Zm0,0h0Zm0,0h0Zm0,0h0Zm0,0h0Zm0,0h0Zm0,0h0Zm0,0h0Zm0,0h0Zm0,0h0Zm18.75-4c-4.38-.17-11-.26-19.75-.27C816.8,545,823.44,545.13,827.82,545.3ZM790,545h0Z" transform="translate(0 0)" fill="#00007f"/><path d="M969.86,650.28c2.47-.12,4.93-.22,7.11-.3,4.32-.15,7.57-.19,10.2-.19l4,0c1.51,0,3.39.06,5.92.14s5.71.19,8.89.32v-1.76a14.91,14.91,0,0,1-4.26-1.74,8.72,8.72,0,0,1-2.72-2.56,13.85,13.85,0,0,1-1.4-2.42,19.82,19.82,0,0,1-1.22-3.63,39.91,39.91,0,0,1-1-7.51c-.25-4-.34-10.21-.34-16.36V603.94c13-17.11,26.26-34,33.87-43.2s9.54-10.74,11.11-11.92a38.59,38.59,0,0,1,4.08-2.73v-1.72c-2.93.2-5.85.38-8,.48-4.3.2-5.52.19-7.17.18-.82,0-1.75,0-2.88,0s-2.46-.07-4.43-.17-4.57-.26-7.17-.45v1.75a24.52,24.52,0,0,1,3.16,1.29,8.55,8.55,0,0,1,2.87,2.17,5.46,5.46,0,0,1,1.42,3A8.8,8.8,0,0,1,1022,554a9.52,9.52,0,0,1-.82,3.53c-.36,1-.88,2.36-5.54,9.35s-13.49,19.59-22.5,32l-26.63-32.38a46.83,46.83,0,0,1-4.71-5.93,18.83,18.83,0,0,1-2-4A9.44,9.44,0,0,1,959,553a5.29,5.29,0,0,1,1.2-3.73,6.91,6.91,0,0,1,3.51-2.34,19.67,19.67,0,0,1,2.85-.82v-1.77c-4,.2-8,.38-10.65.48s-3.88.12-5,.14L948,545c-.88,0-1.7,0-2.84,0s-2.59,0-5.09-.16-6.06-.27-9.61-.47v1.71a35.06,35.06,0,0,1,3.28,2.1,38.07,38.07,0,0,1,6.22,5.3,98.31,98.31,0,0,1,9,11.28l32,40.61v8c.13,6.39,0,12.79-.31,17.19A41.36,41.36,0,0,1,979.4,639a16.29,16.29,0,0,1-1.4,3.52,11,11,0,0,1-2.38,3.18,10.23,10.23,0,0,1-3.24,2,18.66,18.66,0,0,1-2.52.81Z" transform="translate(0 0)" fill="#00007f" fill-rule="evenodd"/><path d="M969.86,650.28h0c2.44-.12,4.89-.22,7.11-.3,3.72-.13,7-.19,10.2-.19-3.24,0-6.48.06-10.2.19C974.75,650.06,972.3,650.16,969.86,650.28Zm36.08,0c-3.1-.13-6.26-.24-8.89-.32s-4.7-.12-5.92-.14c1.22,0,3.16.06,5.92.14s5.79.19,8.89.32v0ZM991,649.82Zm0,0-3.56,0Zm-3.79,0Zm0,0Zm0,0Zm0,0Zm0,0Zm0,0Zm.09,0h0Zm0,0h0Zm-17.53-1.27a17.32,17.32,0,0,0,2.52-.81,10.52,10.52,0,0,0,2.75-1.6,10.52,10.52,0,0,1-2.75,1.6A17.32,17.32,0,0,1,969.86,648.52Zm31.82-1.74a8.72,8.72,0,0,1-2.67-2.49A8.72,8.72,0,0,0,1001.68,646.78Zm-23.55-4.51A16.25,16.25,0,0,0,979.4,639a35.42,35.42,0,0,0,1.1-6.67,35.42,35.42,0,0,1-1.1,6.67A16.25,16.25,0,0,1,978.13,642.27Zm19.4-.54a19.72,19.72,0,0,1-1.19-3.56A19.72,19.72,0,0,0,997.53,641.73ZM996.3,638a40.82,40.82,0,0,1-1-7.33A40.82,40.82,0,0,0,996.3,638Zm-15.65-7.51c.32-4.65.44-11.06.31-17.16C981.09,619.43,981,625.84,980.65,630.49ZM995,614.3V603.94c12-15.87,25.63-33.22,33.87-43.2,7.81-9.44,9.64-10.81,11.11-11.92a38,38,0,0,1,4.08-2.73v0a38,38,0,0,0-4.08,2.73c-1.47,1.11-3.3,2.48-11.11,11.92-8.24,10-21.85,27.33-33.87,43.2Zm-14-8.92-32-40.61a98.74,98.74,0,0,0-9-11.28,38.47,38.47,0,0,0-6.22-5.3,33.08,33.08,0,0,0-3.28-2.1,33.08,33.08,0,0,1,3.28,2.1,38.47,38.47,0,0,1,6.22,5.3,98.74,98.74,0,0,1,9,11.28Zm-14.48-38.86a46.41,46.41,0,0,1-4.58-5.73A46.41,46.41,0,0,0,966.48,566.52ZM1022,554.11V554a8.8,8.8,0,0,0-.11-1.39,5.49,5.49,0,0,0-1.42-3,8.62,8.62,0,0,0-2.87-2.17,24.61,24.61,0,0,0-3.16-1.29,24.61,24.61,0,0,1,3.16,1.29,8.62,8.62,0,0,1,2.87,2.17,5.49,5.49,0,0,1,1.42,3A8.8,8.8,0,0,1,1022,554ZM959,553a5.26,5.26,0,0,1,1.2-3.67,6.94,6.94,0,0,1,3.51-2.34,21.7,21.7,0,0,1,2.85-.82v0a21.7,21.7,0,0,0-2.85.82,6.94,6.94,0,0,0-3.51,2.34A5.26,5.26,0,0,0,959,553Zm70.76-8h0c1.31,0,2.7,0,6-.17C1032.44,545,1031.05,545,1029.74,545Zm-81.93,0Zm0,0c-.7,0-1.4,0-2.37,0C946.41,545,947.11,545,947.81,545Zm-2.39,0h0Zm80.59,0c-.91,0-2.2,0-4.17-.15C1023.81,544.94,1025.1,545,1026,545Zm9.78-.13h0Zm.08,0h0Zm0,0h0Zm.06,0h0Zm0,0h0Zm0,0h0Z" transform="translate(0 0)" fill="#00007f"/><path d="M181.4,722.26v27.06c0,3.67-.09,7.35-.26,9.61a14.73,14.73,0,0,1-.62,3.75,5,5,0,0,1-1.7,2.76,5.6,5.6,0,0,1-2.77,1.18v.88l3.86,0c2.38,0,3.92,0,5.37,0H222L226.19,755l-.79-.11a24.37,24.37,0,0,1-5.26,5.39,21.92,21.92,0,0,1-6.75,3.35,31.34,31.34,0,0,1-5.81,1.25,70.93,70.93,0,0,1-9,.48c-1.61,0-3.22,0-4.35-.1a7.49,7.49,0,0,1-3.27-.72,2.8,2.8,0,0,1-1.81-2.15,6.36,6.36,0,0,1-.18-.83c0-.46-.11-.91-.17-2.94s-.23-5.65-.23-9.26V722.25a13.6,13.6,0,0,1,.12-1.9c.27-1.91.69-2.42,1.52-3.14a6.09,6.09,0,0,1,2.83-1.25v-.88c-1.61.1-3.22.19-4.4.24-2.34.1-3,.09-3.91.09s-1.8,0-3.88-.1c-1.09,0-2.57-.13-4-.23V716a7.08,7.08,0,0,1,2.73,1.28,4.2,4.2,0,0,1,1.65,3A11.35,11.35,0,0,1,181.4,722.26Z" transform="translate(0 0)" fill="#00007f" fill-rule="evenodd"/><path d="M176.05,767.5l3.86,0c2.57,0,4.11,0,5.37,0H222L226.19,755,222,767.42H185.28c-1.26,0-2.8,0-5.37,0Zm0-.88a5.78,5.78,0,0,0,2.7-1.12A5.78,5.78,0,0,1,176.05,766.62Zm21.55-1.29Zm0,0c-1.19,0-2.36,0-3.29-.11C195.24,765.29,196.41,765.33,197.6,765.33Zm1.59,0Zm0,0h0Zm-4.88-.1h0Zm13.18-.37h0Zm0,0h0Zm0,0h0Zm-16.72-.42a2.77,2.77,0,0,1-1.65-2.07,8,8,0,0,1-.18-.83,8,8,0,0,0,.18.83A2.77,2.77,0,0,0,190.84,764.42Zm22.75-.89a22,22,0,0,0,6.55-3.29A22,22,0,0,1,213.59,763.53Zm-33.07-.86a14.08,14.08,0,0,0,.61-3.61A14.08,14.08,0,0,1,180.52,762.67Zm8.09-13.35V722.25a13.6,13.6,0,0,1,.12-1.9c.26-1.88.66-2.4,1.52-3.14a6.14,6.14,0,0,1,2.83-1.25v0a6.14,6.14,0,0,0-2.83,1.25c-.86.74-1.26,1.26-1.52,3.14a13.6,13.6,0,0,0-.12,1.9Zm-7.21-27.06a11.27,11.27,0,0,0-.17-2,4.15,4.15,0,0,0-1.65-3,7.31,7.31,0,0,0-2.73-1.28,7.31,7.31,0,0,1,2.73,1.28,4.15,4.15,0,0,1,1.65,3A11.27,11.27,0,0,1,181.4,722.26Zm3.8-6.85h0c.67,0,1.41,0,3.07-.07C186.61,715.4,185.87,715.41,185.2,715.41Zm-.43,0c-1,0-1.84,0-3.75-.1C182.93,715.4,183.82,715.41,184.77,715.41Zm3.5-.07h0Zm0,0h0Zm0,0h0Zm.07,0Zm0,0h0Zm0,0h0Zm0,0Zm0,0h0Zm0,0h0Zm0,0Zm0,0Zm0,0h0Zm0,0h0Zm.07,0h0Zm0,0h0Zm0,0Zm-7.83,0-4-.23Z" transform="translate(0 0)" fill="#00007f"/><path d="M291.76,767.66c2.24-.11,4.3-.18,6.15-.22l2.66,0h2.12l3.08.07,4.7.16v-.87a6.75,6.75,0,0,1-3.05-1.48c-.59-.53-1.37-1.26-2-3.8a18.9,18.9,0,0,1-.51-3.72c-.14-2-.19-5-.19-8V722.26a11.25,11.25,0,0,1,.19-2.11,4.3,4.3,0,0,1,1.81-3.08,7.1,7.1,0,0,1,2.79-1.11v-.87h-.22l-.7,0c-.6,0-1.75.13-3.12.18s-3,.08-3.94.09h-1.89c-.56,0-1.32,0-2.52-.08s-2.84-.14-4.49-.24V716a10.33,10.33,0,0,1,1.81.62,4.16,4.16,0,0,1,2.4,2.35,6.08,6.08,0,0,1,.42,1.34,10.94,10.94,0,0,1,.17,2v27.06c.06,3.18,0,6.37-.16,8.55a19.84,19.84,0,0,1-.63,4.21,6.62,6.62,0,0,1-1.3,2.67,4.65,4.65,0,0,1-2.27,1.64,10.66,10.66,0,0,1-1.31.4Z" transform="translate(0 0)" fill="#00007f" fill-rule="evenodd"/><path d="M291.76,767.66v0c2.16-.11,4.23-.18,6.15-.22l2.66,0h0l-2.66,0c-1.92,0-4,.11-6.15.22Zm18.71,0-4.7-.16c-1.39,0-2.38,0-3.08-.06.7,0,1.69,0,3.08.06l4.7.16v-.87a7,7,0,0,1-2.9-1.35,7,7,0,0,0,2.9,1.35Zm-7.8-.23h0Zm0,0Zm0,0h0Zm0,0Zm-.05,0h0Zm-1.75,0Zm6.57-2.15c-.56-.52-1.33-1.26-1.95-3.75C306,764,306.81,764.75,307.37,765.27ZM296.66,762a20.13,20.13,0,0,0,.61-4.14A20.13,20.13,0,0,1,296.66,762Zm8.69-.78a20.71,20.71,0,0,1-.44-3.45c-.13-1.81-.19-4.65-.19-8V722.26a10.54,10.54,0,0,1,.19-2.11,4.33,4.33,0,0,1,1.81-3.08,7.08,7.08,0,0,1,2.79-1.11v0a7.08,7.08,0,0,0-2.79,1.11,4.33,4.33,0,0,0-1.81,3.08,10.54,10.54,0,0,0-.19,2.11V749.8c0,3.34.06,6.18.19,8A20.71,20.71,0,0,0,305.35,761.24Zm-7.9-9.45c0-.82,0-1.65,0-2.47C297.44,750.14,297.45,751,297.45,751.79Zm0-29.53a11,11,0,0,0-.17-2,5.82,5.82,0,0,0-.42-1.34,4.16,4.16,0,0,0-2.4-2.35,10.94,10.94,0,0,0-1.81-.62,10.94,10.94,0,0,1,1.81.62,4.16,4.16,0,0,1,2.4,2.35,5.82,5.82,0,0,1,.42,1.34A11,11,0,0,1,297.43,722.26Zm3.24-6.85h.86c.84,0,2.44,0,3.86-.08-1.42,0-3,.07-3.86.08Zm-1,0h0Zm0,0Zm0,0Zm5.92-.09c1.29,0,2.37-.13,3-.17C307.94,715.18,306.86,715.26,305.57,715.31Z" transform="translate(0 0)" fill="#00007f"/><path d="M376,767.67c1.67-.1,3.34-.19,4.55-.24,3.42-.14,3.53-.11,5.06-.08.49,0,1.11,0,2.2.08s2.63.14,4.18.24v-.78a9.21,9.21,0,0,1-3.76-3,9.94,9.94,0,0,1-1-1.75,17.75,17.75,0,0,1-1.06-3,26.24,26.24,0,0,1-.74-4.93c-.17-2.3-.18-5.49-.18-8.68,0-7.82,0-15.64.07-23.47,3.13,6.08,6.17,12.2,8.79,17.64s4.8,10.2,6.91,14.95,4.15,9.49,6.13,14.26h.73l21.42-48.61v29c0,3.18,0,6.36-.17,8.55a21.21,21.21,0,0,1-.63,4.25,6.73,6.73,0,0,1-1.3,2.7,5.27,5.27,0,0,1-3.33,2v.87c1.18-.06,2.37-.11,3.42-.14,2.07-.08,3.72-.1,5.08-.1s2.35,0,4.95.08l4.3.16v-.87a6.23,6.23,0,0,1-2.79-1.42c-.55-.51-1.32-1.24-1.95-3.77a20.76,20.76,0,0,1-.5-3.72c-.13-2-.19-5-.19-8v-24c0-1.46,0-2.91.15-4,.28-3.08.88-3.68,1.39-4.29a3.65,3.65,0,0,1,1.89-1.23,6.81,6.81,0,0,1,1.12-.27v-.88l-3.68.11c-1,0-1.57,0-2,0-1.64,0-1.45,0-3.36,0l-2.71-.12L410.58,756.6c-4.07-7.39-8-14.87-12.7-24.88-2.37-5-4.93-10.69-7.41-16.39-1.31,0-2.43.06-3.94.07h-2.2c-1.12,0-.14,0-2,0l-4.79-.13v.86a10,10,0,0,1,2.91,1.55,5.42,5.42,0,0,1,1.89,2.78,9.61,9.61,0,0,1,.47,2.07,29.39,29.39,0,0,1,.16,3.58l-.07,17.64c0,.46,0,.93,0,1.41,0,.72-.05,1.46-.05,1.62,0,3-.07,6-.26,8.26-.39,4.44-1.15,6.23-1.83,7.49a8.17,8.17,0,0,1-3.2,3.54,13.07,13.07,0,0,1-1.58.84Z" transform="translate(0 0)" fill="#00007f" fill-rule="evenodd"/><path d="M407.8,768.94h-.73c-1.95-4.7-4-9.5-6.13-14.26-2.28-5.12-4.47-9.87-6.92-14.95-2.64-5.5-5.67-11.6-8.78-17.64,0,1.45,0,2.9,0,4.35,0,6.27-.05,12.75-.05,19.12,0-6.37,0-12.85.05-19.12,0-1.45,0-2.9,0-4.35,3.11,6,6.14,12.14,8.78,17.64,2.45,5.08,4.64,9.83,6.92,14.95,2.12,4.76,4.18,9.56,6.13,14.26h.73l21.42-48.61ZM392,767.67c-1.51-.1-3.07-.19-4.18-.24s-1.7-.07-2.2-.08h0c.5,0,1.12,0,2.2.08s2.67.14,4.18.24v0Zm-16,0c1.6-.1,3.3-.19,4.55-.24C379.26,767.48,377.56,767.57,376,767.67Zm47.83,0c1.2-.06,2.38-.11,3.42-.14,1.81-.07,3.47-.1,5.08-.1h.27c1.07,0,2.13,0,4.43.08-2.3-.07-3.36-.08-4.43-.08h-.27c-1.61,0-3.27,0-5.08.1C426.17,767.55,425,767.6,423.79,767.66Zm17.75,0-4.3-.16,4.3.16v-.87a6.35,6.35,0,0,1-2.79-1.42,6.28,6.28,0,0,1-1.88-3.52,6.28,6.28,0,0,0,1.88,3.52,6.35,6.35,0,0,0,2.79,1.42Zm-4.32-.16h0Zm-.09,0h0Zm0,0Zm0,0h0Zm0,0h0Zm0,0h0Zm-.05,0h0Zm-56.47-.07h0Zm0,0h0Zm0,0h0Zm.06,0h0Zm0,0Zm0,0h0Zm.05,0h0Zm0,0h0Zm0,0h0Zm.06,0Zm0,0h0Zm0,0h0Zm0,0Zm0,0h0Zm0,0Zm4.14-.07h0Zm-1,0Zm-8-.44a12.15,12.15,0,0,0,1.52-.8A12.15,12.15,0,0,1,376,766.89Zm47.83-.1a5.33,5.33,0,0,0,3.29-1.92A5.33,5.33,0,0,1,423.79,766.79Zm-36.64-4.62a17.64,17.64,0,0,1-1-2.86A17.64,17.64,0,0,0,387.15,762.17Zm49.58-.9a21.88,21.88,0,0,1-.43-3.39c-.12-1.81-.19-4.65-.19-8v-24c0-1.13,0-2.74.15-4,.27-3,.84-3.63,1.33-4.22l.06-.07a3.59,3.59,0,0,1,1.89-1.23,7.64,7.64,0,0,1,1.12-.27v-.88l-3.5.11,3.5-.11v.88a7.64,7.64,0,0,0-1.12.27,3.59,3.59,0,0,0-1.89,1.23l-.06.07c-.49.59-1.06,1.26-1.33,4.22-.12,1.27-.15,2.88-.15,4v24c0,3.35.07,6.19.19,8A21.88,21.88,0,0,0,436.73,761.27Zm-50.65-2.11a26.87,26.87,0,0,1-.72-4.76A26.87,26.87,0,0,0,386.08,759.16Zm24.5-2.56,18.29-41.35,2.35.1-2.35-.1Zm-28-2.15c.18-2.28.25-5,.22-7.69,0-.07,0-.26,0-.53,0,.27,0,.46,0,.53C382.86,749.41,382.79,752.17,382.61,754.45Zm.28-9.35c0-.46,0-.92,0-1.37C382.9,744.18,382.9,744.64,382.89,745.1Zm.09-19.22a28.54,28.54,0,0,0-.16-3.37,10,10,0,0,0-.47-2.07,5.4,5.4,0,0,0-1.89-2.78,10,10,0,0,0-2.91-1.55,10,10,0,0,1,2.91,1.55,5.4,5.4,0,0,1,1.89,2.78,10,10,0,0,1,.47,2.07A28.54,28.54,0,0,1,383,725.88Zm50.54-10.46Zm0,0-1.66,0Zm-49.83,0Zm0,0h0Zm0,0h0Zm.06,0h0Zm50.45,0h0Zm0,0h0Zm.05,0h0Zm-50.92,0h0Zm0,0Zm0,0-1,0Zm48.47,0h0Zm-.14,0h0Zm0,0h0Zm0,0h0Zm0,0h0Zm0,0Z" transform="translate(0 0)" fill="#00007f"/><path d="M508.63,767.66q3.38-.17,6.16-.22l2.65,0h2.12l3.09.07,4.69.16v-.87a6.81,6.81,0,0,1-3.05-1.48c-.58-.53-1.37-1.26-2-3.8a19.72,19.72,0,0,1-.51-3.72c-.13-2-.19-5-.19-8V722.26a11.25,11.25,0,0,1,.19-2.11,4.31,4.31,0,0,1,1.82-3.08,7,7,0,0,1,2.78-1.11v-.87h-.21l-.71,0c-.6,0-1.75.13-3.12.18s-3,.08-3.94.09h-1.89c-.55,0-1.31,0-2.52-.08s-2.84-.14-4.48-.24V716a10.21,10.21,0,0,1,1.8.62,4.13,4.13,0,0,1,2.4,2.35,5.17,5.17,0,0,1,.42,1.34,10.94,10.94,0,0,1,.17,2v27.06c.07,3.18,0,6.37-.16,8.55a19.19,19.19,0,0,1-.63,4.21,6.36,6.36,0,0,1-1.3,2.67,4.65,4.65,0,0,1-2.27,1.64,9.69,9.69,0,0,1-1.31.4Z" transform="translate(0 0)" fill="#00007f" fill-rule="evenodd"/><path d="M508.63,767.66v0c2.16-.11,4.24-.18,6.16-.22l2.65,0h0l-2.65,0c-1.92,0-4,.11-6.16.22Zm18.71,0-4.69-.16c-1.4,0-2.39,0-3.09-.06.7,0,1.69,0,3.09.06l4.69.16v-.87a6.93,6.93,0,0,1-2.89-1.35,6.93,6.93,0,0,0,2.89,1.35Zm-7.79-.23h0Zm0,0Zm0,0h0Zm0,0Zm0,0h0Zm-1.75,0Zm6.57-2.15c-.57-.52-1.33-1.26-2-3.75C522.92,764,523.68,764.75,524.25,765.27ZM513.53,762a20.13,20.13,0,0,0,.61-4.14A20.13,20.13,0,0,1,513.53,762Zm8.69-.78a21.88,21.88,0,0,1-.44-3.45c-.12-1.81-.19-4.65-.19-8V722.26a11.33,11.33,0,0,1,.19-2.11,4.3,4.3,0,0,1,1.82-3.08,7,7,0,0,1,2.78-1.11v0a7,7,0,0,0-2.78,1.11,4.3,4.3,0,0,0-1.82,3.08,11.33,11.33,0,0,0-.19,2.11V749.8c0,3.34.07,6.18.19,8A21.88,21.88,0,0,0,522.22,761.24Zm-7.9-9.45c0-.82,0-1.65,0-2.47C514.32,750.14,514.32,751,514.32,751.79Zm0-29.53a11,11,0,0,0-.17-2,5.37,5.37,0,0,0-.42-1.34,4.13,4.13,0,0,0-2.4-2.35,10.81,10.81,0,0,0-1.8-.62,10.81,10.81,0,0,1,1.8.62,4.13,4.13,0,0,1,2.4,2.35,5.37,5.37,0,0,1,.42,1.34A11,11,0,0,1,514.3,722.26Zm3.24-6.85h.86c.84,0,2.44,0,3.87-.08-1.43,0-3,.07-3.87.08Zm-.95,0h0Zm-.06,0Zm0,0Zm5.93-.09c1.28,0,2.37-.13,3-.17C524.82,715.18,523.73,715.26,522.45,715.31Z" transform="translate(0 0)" fill="#00007f"/><path d="M592.48,727l.92.3a33.41,33.41,0,0,1,6.23-6,18.6,18.6,0,0,1,11.47-3.87,8.42,8.42,0,0,1,2.52.32,2.47,2.47,0,0,1,1.66,1.35,6,6,0,0,1,.69,2.77,33,33,0,0,1,.1,3.74v21.15c0,4.15-.11,8.3-.3,10.88a18,18,0,0,1-.69,4.3,6.17,6.17,0,0,1-1.83,3.25,6.31,6.31,0,0,1-2.77,1.44v1c1.3-.11,2.59-.2,3.69-.26,2.1-.12,3.63-.15,4.87-.15s1.91,0,4.67.12c1.38.07,3.27.17,5.16.29v-1a5.74,5.74,0,0,1-3.46-2.28,7.58,7.58,0,0,1-1.22-2.59,18.52,18.52,0,0,1-.69-4.31c-.19-2.55-.3-6.63-.3-10.7V725.85a34.1,34.1,0,0,1,.09-3.79,6.13,6.13,0,0,1,.71-2.84,2.57,2.57,0,0,1,1.77-1.43,9.38,9.38,0,0,1,2.88-.36,16.71,16.71,0,0,1,5.2.85,21.18,21.18,0,0,1,5.91,3,32.38,32.38,0,0,1,6.1,5.89l1-.2-3.75-11.57H596.22Z" transform="translate(0 0)" fill="#00007f" fill-rule="evenodd"/><path d="M610.48,767.67c1.27-.1,2.58-.2,3.69-.26,2.28-.13,3.87-.15,4.87-.15h0c-1,0-2.59,0-4.87.15C613.06,767.47,611.75,767.57,610.48,767.67Zm18.39,0c-1.84-.12-3.72-.22-5.16-.29-2.4-.11-3.26-.12-4.2-.12h0c.94,0,1.8,0,4.2.12,1.44.07,3.32.17,5.16.29v0Zm-.17-1.09a5.58,5.58,0,0,1-3.29-2.22A5.58,5.58,0,0,0,628.7,766.58Zm-15.41-1.43a6.21,6.21,0,0,0,1.79-3.2A6.21,6.21,0,0,1,613.29,765.15Zm12.12-.79a7.5,7.5,0,0,1-1.2-2.54A7.5,7.5,0,0,0,625.41,764.36Zm-2.21-17.6v0Zm-29.8-19.49-.92-.3.92.3a33.52,33.52,0,0,1,6.23-6A33.52,33.52,0,0,0,593.4,727.27Zm52.46-.08a32.5,32.5,0,0,0-6.1-5.9,21.16,21.16,0,0,0-5.91-3,21.16,21.16,0,0,1,5.91,3,32.5,32.5,0,0,1,6.1,5.9l1-.21Zm1-.21-3.75-11.57H596.22L592.48,727l3.74-11.56h46.91Zm-23.69-2.18c0-1,0-2,.1-2.74a6,6,0,0,1,.71-2.84,2.55,2.55,0,0,1,1.77-1.43h0a2.55,2.55,0,0,0-1.77,1.43,6,6,0,0,0-.71,2.84C623.22,722.82,623.19,723.79,623.19,724.8Zm-7.11-.2c0-1,0-2-.11-2.73a6,6,0,0,0-.68-2.76h0a2.48,2.48,0,0,0-1.66-1.35,2.48,2.48,0,0,1,1.66,1.35h0a6,6,0,0,1,.68,2.76C616,722.63,616.08,723.6,616.08,724.6Zm-16.42-3.32,0,0Zm34.16-3,0,0Zm-.05,0a16.38,16.38,0,0,0-5.06-.83A16.38,16.38,0,0,1,633.77,718.26Zm-8-.47h0Zm0,0Zm-12.18,0a8,8,0,0,0-2.46-.32A8,8,0,0,1,613.61,717.75Zm15-.32h0Zm-17.55,0h0Zm17.61,0Zm-17.56,0Zm-.14,0Zm17.55,0Z" transform="translate(0 0)" fill="#00007f"/><path d="M712.93,715.33v.88a4.19,4.19,0,0,1,3.37,1.8,5.4,5.4,0,0,1,.92,2.41,14.55,14.55,0,0,1,.18,2.31v26.59c0,3.64-.1,7.3-.27,9.56a14.13,14.13,0,0,1-.64,3.76,5.07,5.07,0,0,1-1.7,2.8,5.65,5.65,0,0,1-2.74,1.18v.88l2.54,0c1.55,0,2.51,0,3.42,0h41.78L763.94,755l-.71-.11a28.18,28.18,0,0,1-3.16,3.63,20.6,20.6,0,0,1-7.42,4.63,27.55,27.55,0,0,1-6.52,1.64,72.75,72.75,0,0,1-10.88.57c-1.86,0-3.73,0-5-.09a11,11,0,0,1-2.5-.4,3.32,3.32,0,0,1-2-1.23,3.93,3.93,0,0,1-.78-1.67,11.1,11.1,0,0,1-.2-2.2c-.07-1.64-.18-4.59-.18-7.54V741l1.87-.15h11.73a36.23,36.23,0,0,1,4.81.29,12.68,12.68,0,0,1,4.95,1.55,8.17,8.17,0,0,1,3.43,3.41,13.36,13.36,0,0,1,.86,1.86h.7V731.7h-.7a11.78,11.78,0,0,1-2,3.35,8.61,8.61,0,0,1-4.22,2.73,15.44,15.44,0,0,1-3,.68,39,39,0,0,1-4.86.27h-8.86l-1.25,0-3.49-.12v-21c1.23,0,2.42-.06,3.3-.07h6.07a71.62,71.62,0,0,1,10.06.42,24.16,24.16,0,0,1,5.85,1.4,20,20,0,0,1,7.05,4.24,31.22,31.22,0,0,1,3.36,3.63l.76-.33-4.15-11.46H719.08l-3.7,0Z" transform="translate(0 0)" fill="#00007f" fill-rule="evenodd"/><path d="M712.05,767.5l2.54,0c1.64,0,2.61,0,3.42,0h41.78L763.94,755l-4.15,12.46H718c-.81,0-1.78,0-3.42,0Zm0-.88a5.63,5.63,0,0,0,2.73-1.18A5.63,5.63,0,0,1,712.05,766.62Zm21.63-1.28c-1.21,0-2.38,0-3.33-.1,1.36.09,3.18.12,4.9.08,1,0,2.11,0,3.16,0-1,0-2.1,0-3.16,0Zm-3.33-.1h0Zm0,0h0Zm0,0h0Zm-.06,0Zm-2.62-.43a3.2,3.2,0,0,1-1.92-1.2,3.8,3.8,0,0,1-.75-1.52,3.8,3.8,0,0,0,.75,1.52A3.2,3.2,0,0,0,727.61,764.8Zm18.43,0Zm.05,0h0Zm6.56-1.65a20.46,20.46,0,0,0,7.42-4.63A20.46,20.46,0,0,1,752.65,763.11Zm-28.12-10.92V741l1.87-.15h11.73a35.91,35.91,0,0,1,4.81.29,12.72,12.72,0,0,1,4.95,1.55,8.17,8.17,0,0,1,3.43,3.41,12.23,12.23,0,0,1,.86,1.86h.7v0h-.7a12.23,12.23,0,0,0-.86-1.86,8.17,8.17,0,0,0-3.43-3.41,12.72,12.72,0,0,0-4.95-1.55,35.91,35.91,0,0,0-4.81-.29H726.4l-1.87.15Zm4.61-13.46Zm0,0-.81,0Zm0,0h0Zm-.86,0h0Zm0,0h0Zm0,0h0Zm0,0h0Zm0,0h0Zm0,0h0Zm-.14,0h0Zm0,0-3.28-.11Zm-3.49-.12v-21c1.11,0,2.32-.06,3.3-.07h0c-1,0-2.19,0-3.3.07Zm35.69-11.37a30.26,30.26,0,0,0-3.37-3.63,20,20,0,0,0-7-4.24,24.52,24.52,0,0,0-5.85-1.4,65.92,65.92,0,0,0-8-.44h0a65.92,65.92,0,0,1,8,.44,24.52,24.52,0,0,1,5.85,1.4,20,20,0,0,1,7,4.24,30.26,30.26,0,0,1,3.37,3.63l.76-.33Zm-42.82-4.47a14.55,14.55,0,0,0-.18-2.31,5.35,5.35,0,0,0-.92-2.41,4.2,4.2,0,0,0-3.37-1.8,4.2,4.2,0,0,1,3.37,1.8,5.35,5.35,0,0,1,.92,2.41A14.55,14.55,0,0,1,717.4,722.73Z" transform="translate(0 0)" fill="#00007f"/><path d="M830.15,767.66c2.77-.15,5.4-.25,7.59-.29s4-.08,7.59.07c1.8.08,4.08.21,5.79.28s2.85.1,4,.1a59.77,59.77,0,0,0,9.21-.63,29.2,29.2,0,0,0,6.21-1.64,24.73,24.73,0,0,0,4.37-2.18,25.14,25.14,0,0,0,11-15,30.38,30.38,0,0,0-.18-16.19,20.31,20.31,0,0,0-3.4-6.53,23.88,23.88,0,0,0-5.41-5.1,25.4,25.4,0,0,0-4.78-2.6,28.62,28.62,0,0,0-7.07-2,67.94,67.94,0,0,0-11.22-.71l-3.49,0-4.85.1c-1.48,0-2.52,0-4.53,0l-6.67,0-2.38,0-.81,0v.89a7.91,7.91,0,0,1,1.25.3,3.42,3.42,0,0,1,2.31,1.81,5.7,5.7,0,0,1,.7,2.21,17.85,17.85,0,0,1,.13,2.2v27.55c0,3.31-.08,6.64-.23,8.71a13.78,13.78,0,0,1-.58,3.51,5.44,5.44,0,0,1-1.65,2.85,6.52,6.52,0,0,1-2.89,1.44v.87m12.48-50c1.62-.12,3.34-.21,5.66-.27a75.34,75.34,0,0,1,12.36.6,22.41,22.41,0,0,1,9.42,3.45,15.47,15.47,0,0,1,6.42,8,23.46,23.46,0,0,1,1.36,4.84,37.3,37.3,0,0,1,.52,7.07,40.39,40.39,0,0,1-.92,8A20,20,0,0,1,872,759.49a19.53,19.53,0,0,1-9.83,5.35,34.77,34.77,0,0,1-7.77.88c-1.65,0-3.3,0-4.49-.1a14.76,14.76,0,0,1-2.54-.38,5,5,0,0,1-3-1.59,5.22,5.22,0,0,1-1.14-2.33,11,11,0,0,1-.23-1.23,29.38,29.38,0,0,1-.22-2.94c-.07-1.82-.18-4.83-.18-7.83Z" transform="translate(0 0)" fill="#00007f" fill-rule="evenodd"/><path d="M855.51,767.82Zm0,0h0Zm-.62,0Zm0,0c-1.13,0-2.21,0-3.61-.09C852.68,767.79,853.76,767.82,854.89,767.82Zm.21,0Zm-3.91-.09Zm0,0h0l-2.6-.12-3.19-.16,3.19.16,2.6.12Zm-21-.06c3.23-.19,5.91-.27,7.59-.3h0C836.06,767.4,833.38,767.48,830.15,767.67Zm0,0Zm15.15-.23h0Zm-.07,0h0Zm0,0h0Zm0,0h0Zm0,0h0Zm0,0c-1.83-.08-3.18-.1-4.38-.1C841.94,767.33,843.29,767.35,845.12,767.43Zm-7.34-.06h0Zm0,0h0Zm0,0h0Zm2.9,0Zm23.54-.13h0Zm0,0h0Zm0,0a29.59,29.59,0,0,0,6.21-1.64,24.08,24.08,0,0,0,4.37-2.18,25,25,0,0,0,6.78-6.25,26.08,26.08,0,0,0,4.21-8.76,30.43,30.43,0,0,0,1-7.87,30.43,30.43,0,0,1-1,7.87,26.08,26.08,0,0,1-4.21,8.76,25,25,0,0,1-6.78,6.25,24.08,24.08,0,0,1-4.37,2.18A29.59,29.59,0,0,1,864.33,767.19Zm-11-1.46Zm0,0c-1.21,0-2.4,0-3.35-.11C850.9,765.69,852.09,765.73,853.3,765.73Zm1,0h0Zm-4.4-.1Zm0,0Zm13.64-1.15a19,19,0,0,0,8.45-5,19.28,19.28,0,0,0,4.87-8,19.28,19.28,0,0,1-4.87,8A19,19,0,0,1,863.54,764.47Zm-28.84-2a14.32,14.32,0,0,0,.57-3.48A14.32,14.32,0,0,1,834.7,762.47Zm8.55-1.18c-.08-.34-.15-.72-.22-1.2C843.1,760.57,843.17,761,843.25,761.29Zm-.62-12V717.66c1.8-.13,3.54-.22,5.65-.27a77.28,77.28,0,0,1,12.37.6,22.51,22.51,0,0,1,9.42,3.45,15.43,15.43,0,0,1,6.42,8,24.15,24.15,0,0,1,1.36,4.84,36.67,36.67,0,0,1,.53,6.35,36.67,36.67,0,0,0-.53-6.35,24.15,24.15,0,0,0-1.36-4.84,15.43,15.43,0,0,0-6.42-8,22.51,22.51,0,0,0-9.42-3.45,77.23,77.23,0,0,0-12.37-.6c-2.11.05-3.85.14-5.65.27Zm43-17.29a20.7,20.7,0,0,0-3.36-6.39A20.7,20.7,0,0,1,885.68,732Zm-50.18-9.3a17.48,17.48,0,0,0-.13-2.2,5.62,5.62,0,0,0-.7-2.21,3.45,3.45,0,0,0-2.31-1.81,8.33,8.33,0,0,0-1.26-.3,8.33,8.33,0,0,1,1.26.3,3.45,3.45,0,0,1,2.31,1.81,5.62,5.62,0,0,1,.7,2.21A17.48,17.48,0,0,1,835.5,722.73Zm35.85-5.11a29.54,29.54,0,0,0-6.29-1.66,67,67,0,0,0-10.08-.72h0a67,67,0,0,1,10.08.72A29.54,29.54,0,0,1,871.35,717.62Zm-29.81-2.21Zm0,0h0Zm-7.71,0-1.91,0-.76,0,.76,0Zm11.46,0h0Zm.07,0h0Zm.07,0h0Zm4.92-.1h0Zm0,0h0Zm0,0h0Zm0,0h0Zm3.38,0h0Zm0,0h0Zm-.13,0Z" transform="translate(0 0)" fill="#00007f"/><path d="M531.5,680c292.68,0,531.49,1.8,531.49,4s-238.81,4-531.49,4S0,686.27,0,684,238.82,680,531.5,680Z" transform="translate(0 0)" fill="#00007f" fill-rule="evenodd"/><path d="M1063,684c0-2.22-238.43-4-531.49-4S0,681.82,0,684c0-2.22,238.43-4,531.5-4S1063,681.82,1063,684Z" transform="translate(0 0)" fill="#00007f"/></svg>
